%TF.GenerationSoftware,KiCad,Pcbnew,9.0.7*%
%TF.CreationDate,2026-08-30T00:58:46+02:00*%
%TF.ProjectId,esque,65737175-652e-46b6-9963-61645f706362,rev?*%
%TF.SameCoordinates,Original*%
%TF.FileFunction,Copper,L1,Top*%
%TF.FilePolarity,Positive*%
%FSLAX46Y46*%
G04 Gerber Fmt 4.6, Leading zero omitted, Abs format (unit mm)*
G04 Created by KiCad (PCBNEW 9.0.7) date 2026-08-30 00:58:46*
%MOMM*%
%LPD*%
G01*
G04 APERTURE LIST*
%TA.AperFunction,ComponentPad*%
%ADD10C,1.600000*%
%TD*%
%TA.AperFunction,ComponentPad*%
%ADD11O,2.030000X1.730000*%
%TD*%
%TA.AperFunction,ComponentPad*%
%ADD12R,2.030000X1.730000*%
%TD*%
%TA.AperFunction,ComponentPad*%
%ADD13C,1.800000*%
%TD*%
%TA.AperFunction,ComponentPad*%
%ADD14R,1.800000X1.800000*%
%TD*%
%TA.AperFunction,ComponentPad*%
%ADD15R,1.600000X1.600000*%
%TD*%
%TA.AperFunction,ComponentPad*%
%ADD16O,1.600000X1.600000*%
%TD*%
%TA.AperFunction,ComponentPad*%
%ADD17R,1.700000X1.700000*%
%TD*%
%TA.AperFunction,ComponentPad*%
%ADD18C,1.700000*%
%TD*%
%TA.AperFunction,ViaPad*%
%ADD19C,2.100000*%
%TD*%
%TA.AperFunction,Conductor*%
%ADD20C,1.000000*%
%TD*%
G04 APERTURE END LIST*
D10*
%TO.P,R6,2*%
%TO.N,+3.3V*%
X144500000Y-76500000D03*
%TO.P,R6,1*%
%TO.N,A4*%
X134340000Y-76500000D03*
%TD*%
%TO.P,R5,1*%
%TO.N,A5*%
X125000000Y-81080000D03*
%TO.P,R5,2*%
%TO.N,+3.3V*%
X125000000Y-70920000D03*
%TD*%
D11*
%TO.P,J3,4,Pin_4*%
%TO.N,A4*%
X103000000Y-79080000D03*
%TO.P,J3,3,Pin_3*%
%TO.N,A5*%
X103000000Y-76540000D03*
%TO.P,J3,2,Pin_2*%
%TO.N,+3.3V*%
X103000000Y-74000000D03*
D12*
%TO.P,J3,1,Pin_1*%
%TO.N,GND*%
X103000000Y-71460000D03*
%TD*%
D13*
%TO.P,D1,2,A*%
%TO.N,Net-(D1-A)*%
X132890000Y-57250000D03*
D14*
%TO.P,D1,1,K*%
%TO.N,D5*%
X130350000Y-57250000D03*
%TD*%
D13*
%TO.P,D2,2,A*%
%TO.N,Net-(D2-A)*%
X126640000Y-57250000D03*
D14*
%TO.P,D2,1,K*%
%TO.N,D4*%
X124100000Y-57250000D03*
%TD*%
D13*
%TO.P,D3,2,A*%
%TO.N,Net-(D3-A)*%
X120100000Y-57100000D03*
D14*
%TO.P,D3,1,K*%
%TO.N,D3*%
X117560000Y-57100000D03*
%TD*%
D15*
%TO.P,A1,1,D1/TX*%
%TO.N,unconnected-(A1-D1{slash}TX-Pad1)*%
X111350000Y-68140000D03*
D16*
%TO.P,A1,2,D0/RX*%
%TO.N,unconnected-(A1-D0{slash}RX-Pad2)*%
X113890000Y-68140000D03*
%TO.P,A1,3,~{RESET}*%
%TO.N,unconnected-(A1-~{RESET}-Pad3)*%
X116430000Y-68140000D03*
%TO.P,A1,4,GND*%
%TO.N,GND*%
X118970000Y-68140000D03*
%TO.P,A1,5,D2*%
%TO.N,unconnected-(A1-D2-Pad5)*%
X121510000Y-68140000D03*
%TO.P,A1,6,D3*%
%TO.N,D3*%
X124050000Y-68140000D03*
%TO.P,A1,7,D4*%
%TO.N,D4*%
X126590000Y-68140000D03*
%TO.P,A1,8,D5*%
%TO.N,D5*%
X129130000Y-68140000D03*
%TO.P,A1,9,D6*%
%TO.N,unconnected-(A1-D6-Pad9)*%
X131670000Y-68140000D03*
%TO.P,A1,10,D7*%
%TO.N,unconnected-(A1-D7-Pad10)*%
X134210000Y-68140000D03*
%TO.P,A1,11,D8*%
%TO.N,unconnected-(A1-D8-Pad11)*%
X136750000Y-68140000D03*
%TO.P,A1,12,D9*%
%TO.N,unconnected-(A1-D9-Pad12)*%
X139290000Y-68140000D03*
%TO.P,A1,13,D10*%
%TO.N,unconnected-(A1-D10-Pad13)*%
X141830000Y-68140000D03*
%TO.P,A1,14,D11*%
%TO.N,unconnected-(A1-D11-Pad14)*%
X144370000Y-68140000D03*
%TO.P,A1,15,D12*%
%TO.N,unconnected-(A1-D12-Pad15)*%
X146910000Y-68140000D03*
%TO.P,A1,16,D13*%
%TO.N,unconnected-(A1-D13-Pad16)*%
X146910000Y-83380000D03*
%TO.P,A1,17,3V3*%
%TO.N,+3.3V*%
X144370000Y-83380000D03*
%TO.P,A1,18,AREF*%
%TO.N,unconnected-(A1-AREF-Pad18)*%
X141830000Y-83380000D03*
%TO.P,A1,19,A0*%
%TO.N,unconnected-(A1-A0-Pad19)*%
X139290000Y-83380000D03*
%TO.P,A1,20,A1*%
%TO.N,A1*%
X136750000Y-83380000D03*
%TO.P,A1,21,A2*%
%TO.N,unconnected-(A1-A2-Pad21)*%
X134210000Y-83380000D03*
%TO.P,A1,22,A3*%
%TO.N,unconnected-(A1-A3-Pad22)*%
X131670000Y-83380000D03*
%TO.P,A1,23,A4*%
%TO.N,A4*%
X129130000Y-83380000D03*
%TO.P,A1,24,A5*%
%TO.N,A5*%
X126590000Y-83380000D03*
%TO.P,A1,25,A6*%
%TO.N,unconnected-(A1-A6-Pad25)*%
X124050000Y-83380000D03*
%TO.P,A1,26,A7*%
%TO.N,unconnected-(A1-A7-Pad26)*%
X121510000Y-83380000D03*
%TO.P,A1,27,+5V*%
%TO.N,+5V*%
X118970000Y-83380000D03*
%TO.P,A1,28,~{RESET}*%
%TO.N,unconnected-(A1-~{RESET}-Pad28)*%
X116430000Y-83380000D03*
%TO.P,A1,29,GND*%
%TO.N,GND*%
X113890000Y-83380000D03*
%TO.P,A1,30,VIN*%
%TO.N,unconnected-(A1-VIN-Pad30)*%
X111350000Y-83380000D03*
%TD*%
D10*
%TO.P,R2,1*%
%TO.N,Net-(D2-A)*%
X111080000Y-59500000D03*
D16*
%TO.P,R2,2*%
%TO.N,+3.3V*%
X100920000Y-59500000D03*
%TD*%
D17*
%TO.P,J2,1,Pin_1*%
%TO.N,GND*%
X116410000Y-87750000D03*
D18*
%TO.P,J2,2,Pin_2*%
%TO.N,+5V*%
X118950000Y-87750000D03*
%TO.P,J2,3,Pin_3*%
%TO.N,A1*%
X121490000Y-87750000D03*
%TD*%
D10*
%TO.P,R1,1*%
%TO.N,Net-(D3-A)*%
X111060000Y-63500000D03*
D16*
%TO.P,R1,2*%
%TO.N,+3.3V*%
X100900000Y-63500000D03*
%TD*%
D10*
%TO.P,R3,1*%
%TO.N,Net-(D1-A)*%
X111030000Y-55300000D03*
D16*
%TO.P,R3,2*%
%TO.N,+3.3V*%
X100870000Y-55300000D03*
%TD*%
D19*
%TO.N,GND*%
X102000000Y-87000000D03*
X150000000Y-53000000D03*
X102000000Y-53000000D03*
X150000000Y-87000000D03*
%TD*%
D20*
%TO.N,+3.3V*%
X138000000Y-74500000D02*
X144370000Y-80870000D01*
X138000000Y-74500000D02*
X134420000Y-70920000D01*
X134420000Y-70920000D02*
X125000000Y-70920000D01*
%TO.N,A4*%
X123000000Y-76500000D02*
X125000000Y-76500000D01*
X123000000Y-76500000D02*
X134340000Y-76500000D01*
%TO.N,+3.3V*%
X144370000Y-83380000D02*
X144370000Y-76630000D01*
X144370000Y-76630000D02*
X144500000Y-76500000D01*
%TO.N,Net-(D1-A)*%
X111030000Y-55300000D02*
X111030000Y-53470000D01*
X111030000Y-53470000D02*
X113000000Y-51500000D01*
X129000000Y-51500000D02*
X132890000Y-55390000D01*
X113000000Y-51500000D02*
X129000000Y-51500000D01*
X132890000Y-55390000D02*
X132890000Y-57250000D01*
%TO.N,Net-(D2-A)*%
X111080000Y-59500000D02*
X112500000Y-59500000D01*
X126640000Y-56140000D02*
X126640000Y-57250000D01*
X112500000Y-59500000D02*
X113000000Y-59000000D01*
X113000000Y-59000000D02*
X113000000Y-55000000D01*
X113000000Y-55000000D02*
X115000000Y-53000000D01*
X115000000Y-53000000D02*
X123500000Y-53000000D01*
X123500000Y-53000000D02*
X126640000Y-56140000D01*
%TO.N,Net-(D3-A)*%
X111060000Y-63500000D02*
X113000000Y-63500000D01*
X113000000Y-63500000D02*
X115000000Y-61500000D01*
X115000000Y-61500000D02*
X115000000Y-56000000D01*
X115000000Y-56000000D02*
X116000000Y-55000000D01*
X116000000Y-55000000D02*
X119000000Y-55000000D01*
X119000000Y-55000000D02*
X120100000Y-56100000D01*
X120100000Y-56100000D02*
X120100000Y-57100000D01*
%TO.N,+3.3V*%
X103000000Y-74000000D02*
X101500000Y-74000000D01*
X100900000Y-73400000D02*
X100900000Y-63500000D01*
X101500000Y-74000000D02*
X100900000Y-73400000D01*
%TO.N,D3*%
X117560000Y-57100000D02*
X117560000Y-59060000D01*
X117560000Y-59060000D02*
X124050000Y-65550000D01*
X124050000Y-65550000D02*
X124050000Y-68140000D01*
%TO.N,D4*%
X126590000Y-68140000D02*
X126590000Y-63590000D01*
X124100000Y-61100000D02*
X124100000Y-57250000D01*
X126590000Y-63590000D02*
X124100000Y-61100000D01*
%TO.N,D5*%
X130350000Y-57250000D02*
X130350000Y-63150000D01*
X130350000Y-63150000D02*
X129130000Y-64370000D01*
X129130000Y-64370000D02*
X129130000Y-68140000D01*
%TO.N,A4*%
X103000000Y-79080000D02*
X104920000Y-79080000D01*
X104920000Y-79080000D02*
X107500000Y-76500000D01*
X107500000Y-76500000D02*
X123000000Y-76500000D01*
X125000000Y-76500000D02*
X129130000Y-80630000D01*
X129130000Y-80630000D02*
X129130000Y-83380000D01*
%TO.N,A5*%
X103000000Y-76540000D02*
X101460000Y-76540000D01*
X100500000Y-77500000D02*
X100500000Y-79500000D01*
X102000000Y-81000000D02*
X125000000Y-81000000D01*
X125000000Y-81000000D02*
X126590000Y-82590000D01*
X100500000Y-79500000D02*
X102000000Y-81000000D01*
X101460000Y-76540000D02*
X100500000Y-77500000D01*
X126590000Y-82590000D02*
X126590000Y-83380000D01*
%TO.N,+3.3V*%
X103000000Y-74040000D02*
X137540000Y-74040000D01*
X137540000Y-74040000D02*
X138000000Y-74500000D01*
X144370000Y-80870000D02*
X144370000Y-83380000D01*
X100870000Y-55300000D02*
X100870000Y-59450000D01*
X100900000Y-63500000D02*
X100900000Y-59520000D01*
%TO.N,+5V*%
X118970000Y-87730000D02*
X118950000Y-87750000D01*
X118970000Y-83380000D02*
X118970000Y-87730000D01*
%TO.N,A1*%
X121490000Y-87750000D02*
X135100000Y-87750000D01*
X136750000Y-86100000D02*
X136750000Y-83380000D01*
X135100000Y-87750000D02*
X136750000Y-86100000D01*
%TD*%
%TA.AperFunction,Conductor*%
%TO.N,GND*%
G36*
X112002256Y-50870185D02*
G01*
X112048011Y-50922989D01*
X112057955Y-50992147D01*
X112028930Y-51055703D01*
X112022898Y-51062181D01*
X110392220Y-52692859D01*
X110392218Y-52692861D01*
X110322538Y-52762540D01*
X110252859Y-52832219D01*
X110143371Y-52996079D01*
X110143364Y-52996092D01*
X110067950Y-53178160D01*
X110067947Y-53178170D01*
X110029500Y-53371456D01*
X110029500Y-54424237D01*
X110009815Y-54491276D01*
X110005818Y-54497122D01*
X109917715Y-54618386D01*
X109824781Y-54800776D01*
X109761522Y-54995465D01*
X109729500Y-55197648D01*
X109729500Y-55402352D01*
X109733878Y-55429995D01*
X109761522Y-55604534D01*
X109824781Y-55799223D01*
X109917715Y-55981613D01*
X110038028Y-56147213D01*
X110182786Y-56291971D01*
X110315815Y-56388620D01*
X110348390Y-56412287D01*
X110464607Y-56471503D01*
X110530776Y-56505218D01*
X110530778Y-56505218D01*
X110530781Y-56505220D01*
X110635137Y-56539127D01*
X110725465Y-56568477D01*
X110826557Y-56584488D01*
X110927648Y-56600500D01*
X110927649Y-56600500D01*
X111132351Y-56600500D01*
X111132352Y-56600500D01*
X111334534Y-56568477D01*
X111529219Y-56505220D01*
X111711610Y-56412287D01*
X111775355Y-56365974D01*
X111802615Y-56346169D01*
X111868421Y-56322689D01*
X111936475Y-56338515D01*
X111985170Y-56388620D01*
X111999500Y-56446487D01*
X111999500Y-58317186D01*
X111979815Y-58384225D01*
X111927011Y-58429980D01*
X111857853Y-58439924D01*
X111802615Y-58417504D01*
X111761613Y-58387715D01*
X111761612Y-58387714D01*
X111761610Y-58387713D01*
X111702400Y-58357544D01*
X111579223Y-58294781D01*
X111384534Y-58231522D01*
X111209995Y-58203878D01*
X111182352Y-58199500D01*
X110977648Y-58199500D01*
X110953329Y-58203351D01*
X110775465Y-58231522D01*
X110580776Y-58294781D01*
X110398386Y-58387715D01*
X110232786Y-58508028D01*
X110088028Y-58652786D01*
X109967715Y-58818386D01*
X109874781Y-59000776D01*
X109811522Y-59195465D01*
X109779500Y-59397648D01*
X109779500Y-59602351D01*
X109811522Y-59804534D01*
X109874781Y-59999223D01*
X109938691Y-60124653D01*
X109945381Y-60137782D01*
X109967715Y-60181613D01*
X110088028Y-60347213D01*
X110232786Y-60491971D01*
X110387749Y-60604556D01*
X110398390Y-60612287D01*
X110514607Y-60671503D01*
X110580776Y-60705218D01*
X110580778Y-60705218D01*
X110580781Y-60705220D01*
X110632111Y-60721898D01*
X110775465Y-60768477D01*
X110876557Y-60784488D01*
X110977648Y-60800500D01*
X110977649Y-60800500D01*
X111182351Y-60800500D01*
X111182352Y-60800500D01*
X111384534Y-60768477D01*
X111579219Y-60705220D01*
X111761610Y-60612287D01*
X111882877Y-60524181D01*
X111948683Y-60500702D01*
X111955762Y-60500500D01*
X112598542Y-60500500D01*
X112629566Y-60494328D01*
X112695188Y-60481275D01*
X112791836Y-60462051D01*
X112845165Y-60439961D01*
X112973914Y-60386632D01*
X113137782Y-60277139D01*
X113277139Y-60137782D01*
X113277140Y-60137779D01*
X113284206Y-60130714D01*
X113284209Y-60130710D01*
X113637778Y-59777141D01*
X113637782Y-59777139D01*
X113777139Y-59637782D01*
X113779804Y-59633793D01*
X113787434Y-59626096D01*
X113813127Y-59611919D01*
X113837387Y-59595393D01*
X113843370Y-59595232D01*
X113848609Y-59592342D01*
X113877889Y-59594306D01*
X113907232Y-59593520D01*
X113912351Y-59596619D01*
X113918322Y-59597020D01*
X113941892Y-59614502D01*
X113967002Y-59629704D01*
X113969633Y-59635079D01*
X113974439Y-59638644D01*
X113984815Y-59666093D01*
X113997721Y-59692459D01*
X113998573Y-59702492D01*
X113999144Y-59704001D01*
X113998828Y-59705484D01*
X113999500Y-59713391D01*
X113999500Y-61034218D01*
X113979815Y-61101257D01*
X113963181Y-61121899D01*
X112621899Y-62463181D01*
X112560576Y-62496666D01*
X112534218Y-62499500D01*
X111935762Y-62499500D01*
X111868723Y-62479815D01*
X111862877Y-62475818D01*
X111741613Y-62387715D01*
X111741612Y-62387714D01*
X111741610Y-62387713D01*
X111684653Y-62358691D01*
X111559223Y-62294781D01*
X111364534Y-62231522D01*
X111189995Y-62203878D01*
X111162352Y-62199500D01*
X110957648Y-62199500D01*
X110933329Y-62203351D01*
X110755465Y-62231522D01*
X110560776Y-62294781D01*
X110378386Y-62387715D01*
X110212786Y-62508028D01*
X110068028Y-62652786D01*
X109947715Y-62818386D01*
X109854781Y-63000776D01*
X109791522Y-63195465D01*
X109759500Y-63397648D01*
X109759500Y-63602351D01*
X109791522Y-63804534D01*
X109854781Y-63999223D01*
X109895008Y-64078171D01*
X109944249Y-64174812D01*
X109947715Y-64181613D01*
X110068028Y-64347213D01*
X110212786Y-64491971D01*
X110367749Y-64604556D01*
X110378390Y-64612287D01*
X110494607Y-64671503D01*
X110560776Y-64705218D01*
X110560778Y-64705218D01*
X110560781Y-64705220D01*
X110665137Y-64739127D01*
X110755465Y-64768477D01*
X110856125Y-64784420D01*
X110957648Y-64800500D01*
X110957649Y-64800500D01*
X111162351Y-64800500D01*
X111162352Y-64800500D01*
X111364534Y-64768477D01*
X111559219Y-64705220D01*
X111741610Y-64612287D01*
X111862877Y-64524181D01*
X111928683Y-64500702D01*
X111935762Y-64500500D01*
X113098543Y-64500500D01*
X113136368Y-64492975D01*
X113218537Y-64476631D01*
X113291836Y-64462051D01*
X113345165Y-64439961D01*
X113473914Y-64386632D01*
X113637782Y-64277139D01*
X113777139Y-64137782D01*
X113777140Y-64137779D01*
X113784206Y-64130714D01*
X113784209Y-64130710D01*
X115637778Y-62277141D01*
X115637782Y-62277139D01*
X115777139Y-62137782D01*
X115886632Y-61973914D01*
X115962051Y-61791835D01*
X116000500Y-61598541D01*
X116000500Y-58326744D01*
X116020185Y-58259705D01*
X116072989Y-58213950D01*
X116142147Y-58204006D01*
X116205703Y-58233031D01*
X116223763Y-58252429D01*
X116302454Y-58357546D01*
X116338093Y-58384225D01*
X116417664Y-58443793D01*
X116417669Y-58443796D01*
X116478833Y-58466608D01*
X116534766Y-58508478D01*
X116559184Y-58573942D01*
X116559500Y-58582790D01*
X116559500Y-59158541D01*
X116559500Y-59158543D01*
X116559499Y-59158543D01*
X116597947Y-59351829D01*
X116597950Y-59351839D01*
X116673364Y-59533907D01*
X116673371Y-59533920D01*
X116782860Y-59697781D01*
X116782863Y-59697785D01*
X116926537Y-59841459D01*
X116926559Y-59841479D01*
X123013181Y-65928101D01*
X123046666Y-65989424D01*
X123049500Y-66015782D01*
X123049500Y-67264237D01*
X123029815Y-67331276D01*
X123025818Y-67337122D01*
X122937715Y-67458386D01*
X122890485Y-67551080D01*
X122842510Y-67601876D01*
X122774689Y-67618671D01*
X122708554Y-67596134D01*
X122669515Y-67551080D01*
X122668883Y-67549840D01*
X122622287Y-67458390D01*
X122614556Y-67447749D01*
X122501971Y-67292786D01*
X122357213Y-67148028D01*
X122191613Y-67027715D01*
X122191612Y-67027714D01*
X122191610Y-67027713D01*
X122134653Y-66998691D01*
X122009223Y-66934781D01*
X121814534Y-66871522D01*
X121639995Y-66843878D01*
X121612352Y-66839500D01*
X121407648Y-66839500D01*
X121383329Y-66843351D01*
X121205465Y-66871522D01*
X121010776Y-66934781D01*
X120828386Y-67027715D01*
X120662786Y-67148028D01*
X120518028Y-67292786D01*
X120397715Y-67458386D01*
X120304781Y-67640776D01*
X120241522Y-67835465D01*
X120209500Y-68037648D01*
X120209500Y-68242351D01*
X120241522Y-68444534D01*
X120304781Y-68639223D01*
X120397715Y-68821613D01*
X120518028Y-68987213D01*
X120662786Y-69131971D01*
X120817749Y-69244556D01*
X120828390Y-69252287D01*
X120917212Y-69297544D01*
X121010776Y-69345218D01*
X121010778Y-69345218D01*
X121010781Y-69345220D01*
X121115137Y-69379127D01*
X121205465Y-69408477D01*
X121306557Y-69424488D01*
X121407648Y-69440500D01*
X121407649Y-69440500D01*
X121612351Y-69440500D01*
X121612352Y-69440500D01*
X121814534Y-69408477D01*
X122009219Y-69345220D01*
X122191610Y-69252287D01*
X122287901Y-69182328D01*
X122357213Y-69131971D01*
X122357215Y-69131968D01*
X122357219Y-69131966D01*
X122501966Y-68987219D01*
X122501968Y-68987215D01*
X122501971Y-68987213D01*
X122622284Y-68821614D01*
X122622285Y-68821613D01*
X122622287Y-68821610D01*
X122669516Y-68728917D01*
X122717489Y-68678123D01*
X122785310Y-68661328D01*
X122851445Y-68683865D01*
X122890485Y-68728919D01*
X122937715Y-68821614D01*
X123058028Y-68987213D01*
X123202786Y-69131971D01*
X123357749Y-69244556D01*
X123368390Y-69252287D01*
X123457212Y-69297544D01*
X123550776Y-69345218D01*
X123550778Y-69345218D01*
X123550781Y-69345220D01*
X123655137Y-69379127D01*
X123745465Y-69408477D01*
X123846557Y-69424488D01*
X123947648Y-69440500D01*
X123947649Y-69440500D01*
X124152351Y-69440500D01*
X124152352Y-69440500D01*
X124354534Y-69408477D01*
X124549219Y-69345220D01*
X124731610Y-69252287D01*
X124827901Y-69182328D01*
X124897213Y-69131971D01*
X124897215Y-69131968D01*
X124897219Y-69131966D01*
X125041966Y-68987219D01*
X125041968Y-68987215D01*
X125041971Y-68987213D01*
X125162284Y-68821614D01*
X125162285Y-68821613D01*
X125162287Y-68821610D01*
X125209516Y-68728917D01*
X125257489Y-68678123D01*
X125325310Y-68661328D01*
X125391445Y-68683865D01*
X125430485Y-68728919D01*
X125477715Y-68821614D01*
X125598028Y-68987213D01*
X125742786Y-69131971D01*
X125897749Y-69244556D01*
X125908390Y-69252287D01*
X125997212Y-69297544D01*
X126090776Y-69345218D01*
X126090778Y-69345218D01*
X126090781Y-69345220D01*
X126195137Y-69379127D01*
X126285465Y-69408477D01*
X126386557Y-69424488D01*
X126487648Y-69440500D01*
X126487649Y-69440500D01*
X126692351Y-69440500D01*
X126692352Y-69440500D01*
X126894534Y-69408477D01*
X127089219Y-69345220D01*
X127271610Y-69252287D01*
X127367901Y-69182328D01*
X127437213Y-69131971D01*
X127437215Y-69131968D01*
X127437219Y-69131966D01*
X127581966Y-68987219D01*
X127581968Y-68987215D01*
X127581971Y-68987213D01*
X127702284Y-68821614D01*
X127702285Y-68821613D01*
X127702287Y-68821610D01*
X127749516Y-68728917D01*
X127797489Y-68678123D01*
X127865310Y-68661328D01*
X127931445Y-68683865D01*
X127970485Y-68728919D01*
X128017715Y-68821614D01*
X128138028Y-68987213D01*
X128282786Y-69131971D01*
X128437749Y-69244556D01*
X128448390Y-69252287D01*
X128537212Y-69297544D01*
X128630776Y-69345218D01*
X128630778Y-69345218D01*
X128630781Y-69345220D01*
X128735137Y-69379127D01*
X128825465Y-69408477D01*
X128926557Y-69424488D01*
X129027648Y-69440500D01*
X129027649Y-69440500D01*
X129232351Y-69440500D01*
X129232352Y-69440500D01*
X129434534Y-69408477D01*
X129629219Y-69345220D01*
X129811610Y-69252287D01*
X129907901Y-69182328D01*
X129977213Y-69131971D01*
X129977215Y-69131968D01*
X129977219Y-69131966D01*
X130121966Y-68987219D01*
X130121968Y-68987215D01*
X130121971Y-68987213D01*
X130242284Y-68821614D01*
X130242285Y-68821613D01*
X130242287Y-68821610D01*
X130289516Y-68728917D01*
X130337489Y-68678123D01*
X130405310Y-68661328D01*
X130471445Y-68683865D01*
X130510485Y-68728919D01*
X130557715Y-68821614D01*
X130678028Y-68987213D01*
X130822786Y-69131971D01*
X130977749Y-69244556D01*
X130988390Y-69252287D01*
X131077212Y-69297544D01*
X131170776Y-69345218D01*
X131170778Y-69345218D01*
X131170781Y-69345220D01*
X131275137Y-69379127D01*
X131365465Y-69408477D01*
X131466557Y-69424488D01*
X131567648Y-69440500D01*
X131567649Y-69440500D01*
X131772351Y-69440500D01*
X131772352Y-69440500D01*
X131974534Y-69408477D01*
X132169219Y-69345220D01*
X132351610Y-69252287D01*
X132447901Y-69182328D01*
X132517213Y-69131971D01*
X132517215Y-69131968D01*
X132517219Y-69131966D01*
X132661966Y-68987219D01*
X132661968Y-68987215D01*
X132661971Y-68987213D01*
X132782284Y-68821614D01*
X132782285Y-68821613D01*
X132782287Y-68821610D01*
X132829516Y-68728917D01*
X132877489Y-68678123D01*
X132945310Y-68661328D01*
X133011445Y-68683865D01*
X133050485Y-68728919D01*
X133097715Y-68821614D01*
X133218028Y-68987213D01*
X133362786Y-69131971D01*
X133517749Y-69244556D01*
X133528390Y-69252287D01*
X133617212Y-69297544D01*
X133710776Y-69345218D01*
X133710778Y-69345218D01*
X133710781Y-69345220D01*
X133815137Y-69379127D01*
X133905465Y-69408477D01*
X134006557Y-69424488D01*
X134107648Y-69440500D01*
X134107649Y-69440500D01*
X134312351Y-69440500D01*
X134312352Y-69440500D01*
X134514534Y-69408477D01*
X134709219Y-69345220D01*
X134891610Y-69252287D01*
X134987901Y-69182328D01*
X135057213Y-69131971D01*
X135057215Y-69131968D01*
X135057219Y-69131966D01*
X135201966Y-68987219D01*
X135201968Y-68987215D01*
X135201971Y-68987213D01*
X135322284Y-68821614D01*
X135322285Y-68821613D01*
X135322287Y-68821610D01*
X135369516Y-68728917D01*
X135417489Y-68678123D01*
X135485310Y-68661328D01*
X135551445Y-68683865D01*
X135590485Y-68728919D01*
X135637715Y-68821614D01*
X135758028Y-68987213D01*
X135902786Y-69131971D01*
X136057749Y-69244556D01*
X136068390Y-69252287D01*
X136157212Y-69297544D01*
X136250776Y-69345218D01*
X136250778Y-69345218D01*
X136250781Y-69345220D01*
X136355137Y-69379127D01*
X136445465Y-69408477D01*
X136546557Y-69424488D01*
X136647648Y-69440500D01*
X136647649Y-69440500D01*
X136852351Y-69440500D01*
X136852352Y-69440500D01*
X137054534Y-69408477D01*
X137249219Y-69345220D01*
X137431610Y-69252287D01*
X137527901Y-69182328D01*
X137597213Y-69131971D01*
X137597215Y-69131968D01*
X137597219Y-69131966D01*
X137741966Y-68987219D01*
X137741968Y-68987215D01*
X137741971Y-68987213D01*
X137862284Y-68821614D01*
X137862285Y-68821613D01*
X137862287Y-68821610D01*
X137909516Y-68728917D01*
X137957489Y-68678123D01*
X138025310Y-68661328D01*
X138091445Y-68683865D01*
X138130485Y-68728919D01*
X138177715Y-68821614D01*
X138298028Y-68987213D01*
X138442786Y-69131971D01*
X138597749Y-69244556D01*
X138608390Y-69252287D01*
X138697212Y-69297544D01*
X138790776Y-69345218D01*
X138790778Y-69345218D01*
X138790781Y-69345220D01*
X138895137Y-69379127D01*
X138985465Y-69408477D01*
X139086557Y-69424488D01*
X139187648Y-69440500D01*
X139187649Y-69440500D01*
X139392351Y-69440500D01*
X139392352Y-69440500D01*
X139594534Y-69408477D01*
X139789219Y-69345220D01*
X139971610Y-69252287D01*
X140067901Y-69182328D01*
X140137213Y-69131971D01*
X140137215Y-69131968D01*
X140137219Y-69131966D01*
X140281966Y-68987219D01*
X140281968Y-68987215D01*
X140281971Y-68987213D01*
X140402284Y-68821614D01*
X140402285Y-68821613D01*
X140402287Y-68821610D01*
X140449516Y-68728917D01*
X140497489Y-68678123D01*
X140565310Y-68661328D01*
X140631445Y-68683865D01*
X140670485Y-68728919D01*
X140717715Y-68821614D01*
X140838028Y-68987213D01*
X140982786Y-69131971D01*
X141137749Y-69244556D01*
X141148390Y-69252287D01*
X141237212Y-69297544D01*
X141330776Y-69345218D01*
X141330778Y-69345218D01*
X141330781Y-69345220D01*
X141435137Y-69379127D01*
X141525465Y-69408477D01*
X141626557Y-69424488D01*
X141727648Y-69440500D01*
X141727649Y-69440500D01*
X141932351Y-69440500D01*
X141932352Y-69440500D01*
X142134534Y-69408477D01*
X142329219Y-69345220D01*
X142511610Y-69252287D01*
X142607901Y-69182328D01*
X142677213Y-69131971D01*
X142677215Y-69131968D01*
X142677219Y-69131966D01*
X142821966Y-68987219D01*
X142821968Y-68987215D01*
X142821971Y-68987213D01*
X142942284Y-68821614D01*
X142942285Y-68821613D01*
X142942287Y-68821610D01*
X142989516Y-68728917D01*
X143037489Y-68678123D01*
X143105310Y-68661328D01*
X143171445Y-68683865D01*
X143210485Y-68728919D01*
X143257715Y-68821614D01*
X143378028Y-68987213D01*
X143522786Y-69131971D01*
X143677749Y-69244556D01*
X143688390Y-69252287D01*
X143777212Y-69297544D01*
X143870776Y-69345218D01*
X143870778Y-69345218D01*
X143870781Y-69345220D01*
X143975137Y-69379127D01*
X144065465Y-69408477D01*
X144166557Y-69424488D01*
X144267648Y-69440500D01*
X144267649Y-69440500D01*
X144472351Y-69440500D01*
X144472352Y-69440500D01*
X144674534Y-69408477D01*
X144869219Y-69345220D01*
X145051610Y-69252287D01*
X145147901Y-69182328D01*
X145217213Y-69131971D01*
X145217215Y-69131968D01*
X145217219Y-69131966D01*
X145361966Y-68987219D01*
X145361968Y-68987215D01*
X145361971Y-68987213D01*
X145482284Y-68821614D01*
X145482285Y-68821613D01*
X145482287Y-68821610D01*
X145529516Y-68728917D01*
X145577489Y-68678123D01*
X145645310Y-68661328D01*
X145711445Y-68683865D01*
X145750485Y-68728919D01*
X145797715Y-68821614D01*
X145918028Y-68987213D01*
X146062786Y-69131971D01*
X146217749Y-69244556D01*
X146228390Y-69252287D01*
X146317212Y-69297544D01*
X146410776Y-69345218D01*
X146410778Y-69345218D01*
X146410781Y-69345220D01*
X146515137Y-69379127D01*
X146605465Y-69408477D01*
X146706557Y-69424488D01*
X146807648Y-69440500D01*
X146807649Y-69440500D01*
X147012351Y-69440500D01*
X147012352Y-69440500D01*
X147214534Y-69408477D01*
X147409219Y-69345220D01*
X147591610Y-69252287D01*
X147687901Y-69182328D01*
X147757213Y-69131971D01*
X147757215Y-69131968D01*
X147757219Y-69131966D01*
X147901966Y-68987219D01*
X147901968Y-68987215D01*
X147901971Y-68987213D01*
X147962670Y-68903666D01*
X148022287Y-68821610D01*
X148115220Y-68639219D01*
X148178477Y-68444534D01*
X148210500Y-68242352D01*
X148210500Y-68037648D01*
X148178477Y-67835466D01*
X148115220Y-67640781D01*
X148115218Y-67640778D01*
X148115218Y-67640776D01*
X148069515Y-67551080D01*
X148022287Y-67458390D01*
X148014556Y-67447749D01*
X147901971Y-67292786D01*
X147757213Y-67148028D01*
X147591613Y-67027715D01*
X147591612Y-67027714D01*
X147591610Y-67027713D01*
X147534653Y-66998691D01*
X147409223Y-66934781D01*
X147214534Y-66871522D01*
X147039995Y-66843878D01*
X147012352Y-66839500D01*
X146807648Y-66839500D01*
X146783329Y-66843351D01*
X146605465Y-66871522D01*
X146410776Y-66934781D01*
X146228386Y-67027715D01*
X146062786Y-67148028D01*
X145918028Y-67292786D01*
X145797715Y-67458386D01*
X145750485Y-67551080D01*
X145702510Y-67601876D01*
X145634689Y-67618671D01*
X145568554Y-67596134D01*
X145529515Y-67551080D01*
X145528883Y-67549840D01*
X145482287Y-67458390D01*
X145474556Y-67447749D01*
X145361971Y-67292786D01*
X145217213Y-67148028D01*
X145051613Y-67027715D01*
X145051612Y-67027714D01*
X145051610Y-67027713D01*
X144994653Y-66998691D01*
X144869223Y-66934781D01*
X144674534Y-66871522D01*
X144499995Y-66843878D01*
X144472352Y-66839500D01*
X144267648Y-66839500D01*
X144243329Y-66843351D01*
X144065465Y-66871522D01*
X143870776Y-66934781D01*
X143688386Y-67027715D01*
X143522786Y-67148028D01*
X143378028Y-67292786D01*
X143257715Y-67458386D01*
X143210485Y-67551080D01*
X143162510Y-67601876D01*
X143094689Y-67618671D01*
X143028554Y-67596134D01*
X142989515Y-67551080D01*
X142988883Y-67549840D01*
X142942287Y-67458390D01*
X142934556Y-67447749D01*
X142821971Y-67292786D01*
X142677213Y-67148028D01*
X142511613Y-67027715D01*
X142511612Y-67027714D01*
X142511610Y-67027713D01*
X142454653Y-66998691D01*
X142329223Y-66934781D01*
X142134534Y-66871522D01*
X141959995Y-66843878D01*
X141932352Y-66839500D01*
X141727648Y-66839500D01*
X141703329Y-66843351D01*
X141525465Y-66871522D01*
X141330776Y-66934781D01*
X141148386Y-67027715D01*
X140982786Y-67148028D01*
X140838028Y-67292786D01*
X140717715Y-67458386D01*
X140670485Y-67551080D01*
X140622510Y-67601876D01*
X140554689Y-67618671D01*
X140488554Y-67596134D01*
X140449515Y-67551080D01*
X140448883Y-67549840D01*
X140402287Y-67458390D01*
X140394556Y-67447749D01*
X140281971Y-67292786D01*
X140137213Y-67148028D01*
X139971613Y-67027715D01*
X139971612Y-67027714D01*
X139971610Y-67027713D01*
X139914653Y-66998691D01*
X139789223Y-66934781D01*
X139594534Y-66871522D01*
X139419995Y-66843878D01*
X139392352Y-66839500D01*
X139187648Y-66839500D01*
X139163329Y-66843351D01*
X138985465Y-66871522D01*
X138790776Y-66934781D01*
X138608386Y-67027715D01*
X138442786Y-67148028D01*
X138298028Y-67292786D01*
X138177715Y-67458386D01*
X138130485Y-67551080D01*
X138082510Y-67601876D01*
X138014689Y-67618671D01*
X137948554Y-67596134D01*
X137909515Y-67551080D01*
X137908883Y-67549840D01*
X137862287Y-67458390D01*
X137854556Y-67447749D01*
X137741971Y-67292786D01*
X137597213Y-67148028D01*
X137431613Y-67027715D01*
X137431612Y-67027714D01*
X137431610Y-67027713D01*
X137374653Y-66998691D01*
X137249223Y-66934781D01*
X137054534Y-66871522D01*
X136879995Y-66843878D01*
X136852352Y-66839500D01*
X136647648Y-66839500D01*
X136623329Y-66843351D01*
X136445465Y-66871522D01*
X136250776Y-66934781D01*
X136068386Y-67027715D01*
X135902786Y-67148028D01*
X135758028Y-67292786D01*
X135637715Y-67458386D01*
X135590485Y-67551080D01*
X135542510Y-67601876D01*
X135474689Y-67618671D01*
X135408554Y-67596134D01*
X135369515Y-67551080D01*
X135368883Y-67549840D01*
X135322287Y-67458390D01*
X135314556Y-67447749D01*
X135201971Y-67292786D01*
X135057213Y-67148028D01*
X134891613Y-67027715D01*
X134891612Y-67027714D01*
X134891610Y-67027713D01*
X134834653Y-66998691D01*
X134709223Y-66934781D01*
X134514534Y-66871522D01*
X134339995Y-66843878D01*
X134312352Y-66839500D01*
X134107648Y-66839500D01*
X134083329Y-66843351D01*
X133905465Y-66871522D01*
X133710776Y-66934781D01*
X133528386Y-67027715D01*
X133362786Y-67148028D01*
X133218028Y-67292786D01*
X133097715Y-67458386D01*
X133050485Y-67551080D01*
X133002510Y-67601876D01*
X132934689Y-67618671D01*
X132868554Y-67596134D01*
X132829515Y-67551080D01*
X132828883Y-67549840D01*
X132782287Y-67458390D01*
X132774556Y-67447749D01*
X132661971Y-67292786D01*
X132517213Y-67148028D01*
X132351613Y-67027715D01*
X132351612Y-67027714D01*
X132351610Y-67027713D01*
X132294653Y-66998691D01*
X132169223Y-66934781D01*
X131974534Y-66871522D01*
X131799995Y-66843878D01*
X131772352Y-66839500D01*
X131567648Y-66839500D01*
X131543329Y-66843351D01*
X131365465Y-66871522D01*
X131170776Y-66934781D01*
X130988386Y-67027715D01*
X130822786Y-67148028D01*
X130678028Y-67292786D01*
X130557715Y-67458386D01*
X130510485Y-67551080D01*
X130462510Y-67601876D01*
X130394689Y-67618671D01*
X130328554Y-67596134D01*
X130289515Y-67551080D01*
X130288883Y-67549840D01*
X130242287Y-67458390D01*
X130159984Y-67345108D01*
X130154182Y-67337122D01*
X130130702Y-67271316D01*
X130130500Y-67264237D01*
X130130500Y-64835782D01*
X130150185Y-64768743D01*
X130166819Y-64748101D01*
X130637782Y-64277139D01*
X131127140Y-63787781D01*
X131236632Y-63623914D01*
X131312052Y-63441835D01*
X131350501Y-63248540D01*
X131350501Y-63051459D01*
X131350501Y-63046349D01*
X131350500Y-63046323D01*
X131350500Y-58732790D01*
X131370185Y-58665751D01*
X131422989Y-58619996D01*
X131431146Y-58616616D01*
X131492331Y-58593796D01*
X131607546Y-58507546D01*
X131693796Y-58392331D01*
X131695518Y-58387715D01*
X131723601Y-58312420D01*
X131765471Y-58256486D01*
X131830936Y-58232068D01*
X131899209Y-58246919D01*
X131927464Y-58268071D01*
X131977636Y-58318243D01*
X131977641Y-58318247D01*
X132087270Y-58397896D01*
X132155978Y-58447815D01*
X132274163Y-58508034D01*
X132352393Y-58547895D01*
X132352396Y-58547896D01*
X132457221Y-58581955D01*
X132562049Y-58616015D01*
X132779778Y-58650500D01*
X132779779Y-58650500D01*
X133000221Y-58650500D01*
X133000222Y-58650500D01*
X133217951Y-58616015D01*
X133427606Y-58547895D01*
X133624022Y-58447815D01*
X133802365Y-58318242D01*
X133958242Y-58162365D01*
X134087815Y-57984022D01*
X134187895Y-57787606D01*
X134256015Y-57577951D01*
X134290500Y-57360222D01*
X134290500Y-57139778D01*
X134256015Y-56922049D01*
X134187895Y-56712394D01*
X134187895Y-56712393D01*
X134153237Y-56644375D01*
X134087815Y-56515978D01*
X134029501Y-56435715D01*
X133958247Y-56337641D01*
X133958243Y-56337636D01*
X133926819Y-56306212D01*
X133893334Y-56244889D01*
X133890500Y-56218531D01*
X133890500Y-55291456D01*
X133852052Y-55098170D01*
X133852051Y-55098169D01*
X133852051Y-55098165D01*
X133809512Y-54995465D01*
X133776635Y-54916092D01*
X133776628Y-54916079D01*
X133667140Y-54752219D01*
X133667139Y-54752218D01*
X133527782Y-54612861D01*
X133527781Y-54612860D01*
X129977100Y-51062180D01*
X129943616Y-51000858D01*
X129948600Y-50931166D01*
X129990472Y-50875233D01*
X130055936Y-50850816D01*
X130064782Y-50850500D01*
X152325500Y-50850500D01*
X152392539Y-50870185D01*
X152438294Y-50922989D01*
X152449500Y-50974500D01*
X152449500Y-89425500D01*
X152429815Y-89492539D01*
X152377011Y-89538294D01*
X152325500Y-89549500D01*
X98924500Y-89549500D01*
X98857461Y-89529815D01*
X98811706Y-89477011D01*
X98800500Y-89425500D01*
X98800500Y-77401459D01*
X99499500Y-77401459D01*
X99499500Y-77407062D01*
X99499500Y-79598544D01*
X99537947Y-79791829D01*
X99537949Y-79791836D01*
X99546104Y-79811522D01*
X99546105Y-79811526D01*
X99613364Y-79973907D01*
X99613371Y-79973920D01*
X99722859Y-80137780D01*
X99722860Y-80137781D01*
X99722861Y-80137782D01*
X99862218Y-80277139D01*
X99862219Y-80277139D01*
X99869286Y-80284206D01*
X99869285Y-80284206D01*
X99869288Y-80284208D01*
X101222860Y-81637781D01*
X101222861Y-81637782D01*
X101362218Y-81777139D01*
X101526086Y-81886632D01*
X101632745Y-81930811D01*
X101708164Y-81962051D01*
X101901454Y-82000499D01*
X101901457Y-82000500D01*
X101901459Y-82000500D01*
X102098540Y-82000500D01*
X110676327Y-82000500D01*
X110743366Y-82020185D01*
X110789121Y-82072989D01*
X110799065Y-82142147D01*
X110770040Y-82205703D01*
X110732622Y-82234985D01*
X110668386Y-82267715D01*
X110502786Y-82388028D01*
X110358028Y-82532786D01*
X110237715Y-82698386D01*
X110144781Y-82880776D01*
X110081522Y-83075465D01*
X110049500Y-83277648D01*
X110049500Y-83482351D01*
X110081522Y-83684534D01*
X110144781Y-83879223D01*
X110237715Y-84061613D01*
X110358028Y-84227213D01*
X110502786Y-84371971D01*
X110657749Y-84484556D01*
X110668390Y-84492287D01*
X110784607Y-84551503D01*
X110850776Y-84585218D01*
X110850778Y-84585218D01*
X110850781Y-84585220D01*
X110955137Y-84619127D01*
X111045465Y-84648477D01*
X111146557Y-84664488D01*
X111247648Y-84680500D01*
X111247649Y-84680500D01*
X111452351Y-84680500D01*
X111452352Y-84680500D01*
X111654534Y-84648477D01*
X111849219Y-84585220D01*
X112031610Y-84492287D01*
X112124590Y-84424732D01*
X112197213Y-84371971D01*
X112197215Y-84371968D01*
X112197219Y-84371966D01*
X112341966Y-84227219D01*
X112341968Y-84227215D01*
X112341971Y-84227213D01*
X112394732Y-84154590D01*
X112462287Y-84061610D01*
X112555220Y-83879219D01*
X112618477Y-83684534D01*
X112650500Y-83482352D01*
X112650500Y-83277648D01*
X112618477Y-83075466D01*
X112555220Y-82880781D01*
X112555218Y-82880778D01*
X112555218Y-82880776D01*
X112509515Y-82791080D01*
X112462287Y-82698390D01*
X112454556Y-82687749D01*
X112341971Y-82532786D01*
X112197213Y-82388028D01*
X112031613Y-82267715D01*
X112031612Y-82267714D01*
X112031610Y-82267713D01*
X111967378Y-82234985D01*
X111916582Y-82187010D01*
X111899787Y-82119189D01*
X111922325Y-82053054D01*
X111977040Y-82009603D01*
X112023673Y-82000500D01*
X115756327Y-82000500D01*
X115823366Y-82020185D01*
X115869121Y-82072989D01*
X115879065Y-82142147D01*
X115850040Y-82205703D01*
X115812622Y-82234985D01*
X115748386Y-82267715D01*
X115582786Y-82388028D01*
X115438028Y-82532786D01*
X115317715Y-82698386D01*
X115224781Y-82880776D01*
X115161522Y-83075465D01*
X115129500Y-83277648D01*
X115129500Y-83482351D01*
X115161522Y-83684534D01*
X115224781Y-83879223D01*
X115317715Y-84061613D01*
X115438028Y-84227213D01*
X115582786Y-84371971D01*
X115737749Y-84484556D01*
X115748390Y-84492287D01*
X115864607Y-84551503D01*
X115930776Y-84585218D01*
X115930778Y-84585218D01*
X115930781Y-84585220D01*
X116035137Y-84619127D01*
X116125465Y-84648477D01*
X116226557Y-84664488D01*
X116327648Y-84680500D01*
X116327649Y-84680500D01*
X116532351Y-84680500D01*
X116532352Y-84680500D01*
X116734534Y-84648477D01*
X116929219Y-84585220D01*
X117111610Y-84492287D01*
X117204590Y-84424732D01*
X117277213Y-84371971D01*
X117277215Y-84371968D01*
X117277219Y-84371966D01*
X117421966Y-84227219D01*
X117421968Y-84227215D01*
X117421971Y-84227213D01*
X117542284Y-84061614D01*
X117542285Y-84061613D01*
X117542287Y-84061610D01*
X117589516Y-83968917D01*
X117637489Y-83918123D01*
X117705310Y-83901328D01*
X117771445Y-83923865D01*
X117810483Y-83968917D01*
X117857713Y-84061610D01*
X117945819Y-84182877D01*
X117969298Y-84248681D01*
X117969500Y-84255761D01*
X117969500Y-86769242D01*
X117949815Y-86836281D01*
X117933181Y-86856923D01*
X117919894Y-86870209D01*
X117919890Y-86870213D01*
X117794951Y-87042179D01*
X117698444Y-87231585D01*
X117632753Y-87433760D01*
X117599500Y-87643713D01*
X117599500Y-87856286D01*
X117632753Y-88066239D01*
X117698444Y-88268414D01*
X117794951Y-88457820D01*
X117919890Y-88629786D01*
X118070213Y-88780109D01*
X118242179Y-88905048D01*
X118242181Y-88905049D01*
X118242184Y-88905051D01*
X118431588Y-89001557D01*
X118633757Y-89067246D01*
X118843713Y-89100500D01*
X118843714Y-89100500D01*
X119056286Y-89100500D01*
X119056287Y-89100500D01*
X119266243Y-89067246D01*
X119468412Y-89001557D01*
X119657816Y-88905051D01*
X119679789Y-88889086D01*
X119829786Y-88780109D01*
X119829788Y-88780106D01*
X119829792Y-88780104D01*
X119980104Y-88629792D01*
X119980106Y-88629788D01*
X119980109Y-88629786D01*
X120105048Y-88457820D01*
X120105047Y-88457820D01*
X120105051Y-88457816D01*
X120109514Y-88449054D01*
X120157488Y-88398259D01*
X120225308Y-88381463D01*
X120291444Y-88403999D01*
X120330486Y-88449056D01*
X120334951Y-88457820D01*
X120459890Y-88629786D01*
X120610213Y-88780109D01*
X120782179Y-88905048D01*
X120782181Y-88905049D01*
X120782184Y-88905051D01*
X120971588Y-89001557D01*
X121173757Y-89067246D01*
X121383713Y-89100500D01*
X121383714Y-89100500D01*
X121596286Y-89100500D01*
X121596287Y-89100500D01*
X121806243Y-89067246D01*
X122008412Y-89001557D01*
X122197816Y-88905051D01*
X122212769Y-88894186D01*
X122373734Y-88777241D01*
X122374364Y-88778108D01*
X122433419Y-88751641D01*
X122450200Y-88750500D01*
X135198543Y-88750500D01*
X135255490Y-88739172D01*
X135299087Y-88730500D01*
X135391836Y-88712051D01*
X135445165Y-88689961D01*
X135573914Y-88636632D01*
X135737782Y-88527139D01*
X135877139Y-88387782D01*
X135877139Y-88387780D01*
X135887347Y-88377573D01*
X135887348Y-88377570D01*
X137527139Y-86737782D01*
X137564129Y-86682421D01*
X137636631Y-86573916D01*
X137636636Y-86573906D01*
X137712049Y-86391839D01*
X137712051Y-86391835D01*
X137750500Y-86198541D01*
X137750500Y-84255761D01*
X137770185Y-84188722D01*
X137774165Y-84182899D01*
X137862287Y-84061610D01*
X137909516Y-83968917D01*
X137957489Y-83918123D01*
X138025310Y-83901328D01*
X138091445Y-83923865D01*
X138130485Y-83968919D01*
X138177715Y-84061614D01*
X138298028Y-84227213D01*
X138442786Y-84371971D01*
X138597749Y-84484556D01*
X138608390Y-84492287D01*
X138724607Y-84551503D01*
X138790776Y-84585218D01*
X138790778Y-84585218D01*
X138790781Y-84585220D01*
X138895137Y-84619127D01*
X138985465Y-84648477D01*
X139086557Y-84664488D01*
X139187648Y-84680500D01*
X139187649Y-84680500D01*
X139392351Y-84680500D01*
X139392352Y-84680500D01*
X139594534Y-84648477D01*
X139789219Y-84585220D01*
X139971610Y-84492287D01*
X140064590Y-84424732D01*
X140137213Y-84371971D01*
X140137215Y-84371968D01*
X140137219Y-84371966D01*
X140281966Y-84227219D01*
X140281968Y-84227215D01*
X140281971Y-84227213D01*
X140402284Y-84061614D01*
X140402285Y-84061613D01*
X140402287Y-84061610D01*
X140449516Y-83968917D01*
X140497489Y-83918123D01*
X140565310Y-83901328D01*
X140631445Y-83923865D01*
X140670485Y-83968919D01*
X140717715Y-84061614D01*
X140838028Y-84227213D01*
X140982786Y-84371971D01*
X141137749Y-84484556D01*
X141148390Y-84492287D01*
X141264607Y-84551503D01*
X141330776Y-84585218D01*
X141330778Y-84585218D01*
X141330781Y-84585220D01*
X141435137Y-84619127D01*
X141525465Y-84648477D01*
X141626557Y-84664488D01*
X141727648Y-84680500D01*
X141727649Y-84680500D01*
X141932351Y-84680500D01*
X141932352Y-84680500D01*
X142134534Y-84648477D01*
X142329219Y-84585220D01*
X142511610Y-84492287D01*
X142604590Y-84424732D01*
X142677213Y-84371971D01*
X142677215Y-84371968D01*
X142677219Y-84371966D01*
X142821966Y-84227219D01*
X142821968Y-84227215D01*
X142821971Y-84227213D01*
X142942284Y-84061614D01*
X142942285Y-84061613D01*
X142942287Y-84061610D01*
X142989516Y-83968917D01*
X143037489Y-83918123D01*
X143105310Y-83901328D01*
X143171445Y-83923865D01*
X143210485Y-83968919D01*
X143257715Y-84061614D01*
X143378028Y-84227213D01*
X143522786Y-84371971D01*
X143677749Y-84484556D01*
X143688390Y-84492287D01*
X143804607Y-84551503D01*
X143870776Y-84585218D01*
X143870778Y-84585218D01*
X143870781Y-84585220D01*
X143975137Y-84619127D01*
X144065465Y-84648477D01*
X144166557Y-84664488D01*
X144267648Y-84680500D01*
X144267649Y-84680500D01*
X144472351Y-84680500D01*
X144472352Y-84680500D01*
X144674534Y-84648477D01*
X144869219Y-84585220D01*
X145051610Y-84492287D01*
X145144590Y-84424732D01*
X145217213Y-84371971D01*
X145217215Y-84371968D01*
X145217219Y-84371966D01*
X145361966Y-84227219D01*
X145361968Y-84227215D01*
X145361971Y-84227213D01*
X145482284Y-84061614D01*
X145482285Y-84061613D01*
X145482287Y-84061610D01*
X145529516Y-83968917D01*
X145577489Y-83918123D01*
X145645310Y-83901328D01*
X145711445Y-83923865D01*
X145750485Y-83968919D01*
X145797715Y-84061614D01*
X145918028Y-84227213D01*
X146062786Y-84371971D01*
X146217749Y-84484556D01*
X146228390Y-84492287D01*
X146344607Y-84551503D01*
X146410776Y-84585218D01*
X146410778Y-84585218D01*
X146410781Y-84585220D01*
X146515137Y-84619127D01*
X146605465Y-84648477D01*
X146706557Y-84664488D01*
X146807648Y-84680500D01*
X146807649Y-84680500D01*
X147012351Y-84680500D01*
X147012352Y-84680500D01*
X147214534Y-84648477D01*
X147409219Y-84585220D01*
X147591610Y-84492287D01*
X147684590Y-84424732D01*
X147757213Y-84371971D01*
X147757215Y-84371968D01*
X147757219Y-84371966D01*
X147901966Y-84227219D01*
X147901968Y-84227215D01*
X147901971Y-84227213D01*
X147954732Y-84154590D01*
X148022287Y-84061610D01*
X148115220Y-83879219D01*
X148178477Y-83684534D01*
X148210500Y-83482352D01*
X148210500Y-83277648D01*
X148178477Y-83075466D01*
X148115220Y-82880781D01*
X148115218Y-82880778D01*
X148115218Y-82880776D01*
X148069515Y-82791080D01*
X148022287Y-82698390D01*
X148014556Y-82687749D01*
X147901971Y-82532786D01*
X147757213Y-82388028D01*
X147591613Y-82267715D01*
X147591612Y-82267714D01*
X147591610Y-82267713D01*
X147527378Y-82234985D01*
X147409223Y-82174781D01*
X147214534Y-82111522D01*
X147039995Y-82083878D01*
X147012352Y-82079500D01*
X146807648Y-82079500D01*
X146793840Y-82081687D01*
X146605465Y-82111522D01*
X146410776Y-82174781D01*
X146228386Y-82267715D01*
X146062786Y-82388028D01*
X145918028Y-82532786D01*
X145797715Y-82698386D01*
X145750485Y-82791080D01*
X145702510Y-82841876D01*
X145634689Y-82858671D01*
X145568554Y-82836134D01*
X145529515Y-82791080D01*
X145528883Y-82789840D01*
X145482287Y-82698390D01*
X145469654Y-82681003D01*
X145394182Y-82577122D01*
X145370702Y-82511316D01*
X145370500Y-82504237D01*
X145370500Y-77520047D01*
X145390185Y-77453008D01*
X145406819Y-77432366D01*
X145437726Y-77401459D01*
X145491966Y-77347219D01*
X145491968Y-77347215D01*
X145491971Y-77347213D01*
X145558474Y-77255678D01*
X145612287Y-77181610D01*
X145705220Y-76999219D01*
X145768477Y-76804534D01*
X145800500Y-76602352D01*
X145800500Y-76397648D01*
X145768477Y-76195466D01*
X145705220Y-76000781D01*
X145705218Y-76000778D01*
X145705218Y-76000776D01*
X145655001Y-75902221D01*
X145612287Y-75818390D01*
X145604556Y-75807749D01*
X145491971Y-75652786D01*
X145347213Y-75508028D01*
X145181613Y-75387715D01*
X145181612Y-75387714D01*
X145181610Y-75387713D01*
X145120196Y-75356421D01*
X144999223Y-75294781D01*
X144804534Y-75231522D01*
X144629995Y-75203878D01*
X144602352Y-75199500D01*
X144397648Y-75199500D01*
X144373329Y-75203351D01*
X144195465Y-75231522D01*
X144000776Y-75294781D01*
X143818386Y-75387715D01*
X143652786Y-75508028D01*
X143508028Y-75652786D01*
X143387715Y-75818386D01*
X143294781Y-76000776D01*
X143231522Y-76195465D01*
X143199500Y-76397648D01*
X143199500Y-76602351D01*
X143231522Y-76804534D01*
X143294781Y-76999223D01*
X143355985Y-77119340D01*
X143369500Y-77175635D01*
X143369500Y-78155217D01*
X143349815Y-78222256D01*
X143297011Y-78268011D01*
X143227853Y-78277955D01*
X143164297Y-78248930D01*
X143157819Y-78242898D01*
X138784210Y-73869290D01*
X138784208Y-73869287D01*
X135204209Y-70289289D01*
X135204206Y-70289285D01*
X135204206Y-70289286D01*
X135197139Y-70282219D01*
X135197139Y-70282218D01*
X135057782Y-70142861D01*
X135057781Y-70142860D01*
X135057780Y-70142859D01*
X134893920Y-70033371D01*
X134893911Y-70033366D01*
X134821315Y-70003296D01*
X134765165Y-69980038D01*
X134711836Y-69957949D01*
X134711832Y-69957948D01*
X134711828Y-69957946D01*
X134615188Y-69938724D01*
X134518544Y-69919500D01*
X134518541Y-69919500D01*
X125875762Y-69919500D01*
X125808723Y-69899815D01*
X125802877Y-69895818D01*
X125681613Y-69807715D01*
X125681612Y-69807714D01*
X125681610Y-69807713D01*
X125624653Y-69778691D01*
X125499223Y-69714781D01*
X125304534Y-69651522D01*
X125129995Y-69623878D01*
X125102352Y-69619500D01*
X124897648Y-69619500D01*
X124873329Y-69623351D01*
X124695465Y-69651522D01*
X124500776Y-69714781D01*
X124318386Y-69807715D01*
X124152786Y-69928028D01*
X124008028Y-70072786D01*
X123887715Y-70238386D01*
X123794781Y-70420776D01*
X123731522Y-70615465D01*
X123699500Y-70817648D01*
X123699500Y-71022351D01*
X123731522Y-71224534D01*
X123794781Y-71419223D01*
X123887715Y-71601613D01*
X124008028Y-71767213D01*
X124152786Y-71911971D01*
X124307749Y-72024556D01*
X124318390Y-72032287D01*
X124434607Y-72091503D01*
X124500776Y-72125218D01*
X124500778Y-72125218D01*
X124500781Y-72125220D01*
X124605137Y-72159127D01*
X124695465Y-72188477D01*
X124796557Y-72204488D01*
X124897648Y-72220500D01*
X124897649Y-72220500D01*
X125102351Y-72220500D01*
X125102352Y-72220500D01*
X125304534Y-72188477D01*
X125499219Y-72125220D01*
X125681610Y-72032287D01*
X125802877Y-71944181D01*
X125868683Y-71920702D01*
X125875762Y-71920500D01*
X133954218Y-71920500D01*
X134021257Y-71940185D01*
X134041899Y-71956819D01*
X134912899Y-72827819D01*
X134946384Y-72889142D01*
X134941400Y-72958834D01*
X134899528Y-73014767D01*
X134834064Y-73039184D01*
X134825218Y-73039500D01*
X104171970Y-73039500D01*
X104104931Y-73019815D01*
X104084289Y-73003181D01*
X104039565Y-72958457D01*
X104039563Y-72958455D01*
X103865678Y-72832120D01*
X103835028Y-72816503D01*
X103674170Y-72734541D01*
X103674167Y-72734540D01*
X103469757Y-72668124D01*
X103328229Y-72645708D01*
X103257467Y-72634500D01*
X102742533Y-72634500D01*
X102671770Y-72645708D01*
X102530243Y-72668124D01*
X102530240Y-72668124D01*
X102325832Y-72734540D01*
X102325829Y-72734541D01*
X102134319Y-72832121D01*
X102097384Y-72858956D01*
X102031578Y-72882435D01*
X101963524Y-72866609D01*
X101914830Y-72816503D01*
X101900500Y-72758637D01*
X101900500Y-67292135D01*
X110049500Y-67292135D01*
X110049500Y-68987870D01*
X110049501Y-68987876D01*
X110055908Y-69047483D01*
X110106202Y-69182328D01*
X110106206Y-69182335D01*
X110192452Y-69297544D01*
X110192455Y-69297547D01*
X110307664Y-69383793D01*
X110307671Y-69383797D01*
X110442517Y-69434091D01*
X110442516Y-69434091D01*
X110449444Y-69434835D01*
X110502127Y-69440500D01*
X112197872Y-69440499D01*
X112257483Y-69434091D01*
X112392331Y-69383796D01*
X112507546Y-69297546D01*
X112593796Y-69182331D01*
X112644091Y-69047483D01*
X112648061Y-69010556D01*
X112674796Y-68946011D01*
X112732188Y-68906161D01*
X112802013Y-68903666D01*
X112862102Y-68939317D01*
X112871667Y-68950929D01*
X112898032Y-68987217D01*
X113042786Y-69131971D01*
X113197749Y-69244556D01*
X113208390Y-69252287D01*
X113297212Y-69297544D01*
X113390776Y-69345218D01*
X113390778Y-69345218D01*
X113390781Y-69345220D01*
X113495137Y-69379127D01*
X113585465Y-69408477D01*
X113686557Y-69424488D01*
X113787648Y-69440500D01*
X113787649Y-69440500D01*
X113992351Y-69440500D01*
X113992352Y-69440500D01*
X114194534Y-69408477D01*
X114389219Y-69345220D01*
X114571610Y-69252287D01*
X114667901Y-69182328D01*
X114737213Y-69131971D01*
X114737215Y-69131968D01*
X114737219Y-69131966D01*
X114881966Y-68987219D01*
X114881968Y-68987215D01*
X114881971Y-68987213D01*
X115002284Y-68821614D01*
X115002285Y-68821613D01*
X115002287Y-68821610D01*
X115049516Y-68728917D01*
X115097489Y-68678123D01*
X115165310Y-68661328D01*
X115231445Y-68683865D01*
X115270485Y-68728919D01*
X115317715Y-68821614D01*
X115438028Y-68987213D01*
X115582786Y-69131971D01*
X115737749Y-69244556D01*
X115748390Y-69252287D01*
X115837212Y-69297544D01*
X115930776Y-69345218D01*
X115930778Y-69345218D01*
X115930781Y-69345220D01*
X116035137Y-69379127D01*
X116125465Y-69408477D01*
X116226557Y-69424488D01*
X116327648Y-69440500D01*
X116327649Y-69440500D01*
X116532351Y-69440500D01*
X116532352Y-69440500D01*
X116734534Y-69408477D01*
X116929219Y-69345220D01*
X117111610Y-69252287D01*
X117207901Y-69182328D01*
X117277213Y-69131971D01*
X117277215Y-69131968D01*
X117277219Y-69131966D01*
X117421966Y-68987219D01*
X117421968Y-68987215D01*
X117421971Y-68987213D01*
X117482670Y-68903666D01*
X117542287Y-68821610D01*
X117635220Y-68639219D01*
X117698477Y-68444534D01*
X117730500Y-68242352D01*
X117730500Y-68037648D01*
X117698477Y-67835466D01*
X117635220Y-67640781D01*
X117635218Y-67640778D01*
X117635218Y-67640776D01*
X117589515Y-67551080D01*
X117542287Y-67458390D01*
X117534556Y-67447749D01*
X117421971Y-67292786D01*
X117277213Y-67148028D01*
X117111613Y-67027715D01*
X117111612Y-67027714D01*
X117111610Y-67027713D01*
X117054653Y-66998691D01*
X116929223Y-66934781D01*
X116734534Y-66871522D01*
X116559995Y-66843878D01*
X116532352Y-66839500D01*
X116327648Y-66839500D01*
X116303329Y-66843351D01*
X116125465Y-66871522D01*
X115930776Y-66934781D01*
X115748386Y-67027715D01*
X115582786Y-67148028D01*
X115438028Y-67292786D01*
X115317715Y-67458386D01*
X115270485Y-67551080D01*
X115222510Y-67601876D01*
X115154689Y-67618671D01*
X115088554Y-67596134D01*
X115049515Y-67551080D01*
X115048883Y-67549840D01*
X115002287Y-67458390D01*
X114994556Y-67447749D01*
X114881971Y-67292786D01*
X114737213Y-67148028D01*
X114571613Y-67027715D01*
X114571612Y-67027714D01*
X114571610Y-67027713D01*
X114514653Y-66998691D01*
X114389223Y-66934781D01*
X114194534Y-66871522D01*
X114019995Y-66843878D01*
X113992352Y-66839500D01*
X113787648Y-66839500D01*
X113763329Y-66843351D01*
X113585465Y-66871522D01*
X113390776Y-66934781D01*
X113208386Y-67027715D01*
X113042786Y-67148028D01*
X112898032Y-67292782D01*
X112871668Y-67329070D01*
X112816338Y-67371735D01*
X112746724Y-67377714D01*
X112684929Y-67345108D01*
X112650572Y-67284269D01*
X112648060Y-67269438D01*
X112647501Y-67264237D01*
X112644091Y-67232517D01*
X112593796Y-67097669D01*
X112593795Y-67097668D01*
X112593793Y-67097664D01*
X112507547Y-66982455D01*
X112507544Y-66982452D01*
X112392335Y-66896206D01*
X112392328Y-66896202D01*
X112257482Y-66845908D01*
X112257483Y-66845908D01*
X112197883Y-66839501D01*
X112197881Y-66839500D01*
X112197873Y-66839500D01*
X112197864Y-66839500D01*
X110502129Y-66839500D01*
X110502123Y-66839501D01*
X110442516Y-66845908D01*
X110307671Y-66896202D01*
X110307664Y-66896206D01*
X110192455Y-66982452D01*
X110192452Y-66982455D01*
X110106206Y-67097664D01*
X110106202Y-67097671D01*
X110055908Y-67232517D01*
X110049501Y-67292116D01*
X110049500Y-67292135D01*
X101900500Y-67292135D01*
X101900500Y-64375761D01*
X101920185Y-64308722D01*
X101924165Y-64302899D01*
X102012287Y-64181610D01*
X102105220Y-63999219D01*
X102168477Y-63804534D01*
X102200500Y-63602352D01*
X102200500Y-63397648D01*
X102168477Y-63195466D01*
X102105220Y-63000781D01*
X102105218Y-63000778D01*
X102105218Y-63000776D01*
X102071503Y-62934607D01*
X102012287Y-62818390D01*
X101952122Y-62735579D01*
X101924182Y-62697122D01*
X101900702Y-62631316D01*
X101900500Y-62624237D01*
X101900500Y-60403291D01*
X101920185Y-60336252D01*
X101924182Y-60330406D01*
X101975452Y-60259836D01*
X102032287Y-60181610D01*
X102125220Y-59999219D01*
X102188477Y-59804534D01*
X102220500Y-59602352D01*
X102220500Y-59397648D01*
X102188477Y-59195466D01*
X102176479Y-59158541D01*
X102125218Y-59000776D01*
X102091503Y-58934607D01*
X102032287Y-58818390D01*
X102024556Y-58807749D01*
X101911971Y-58652786D01*
X101906819Y-58647634D01*
X101873334Y-58586311D01*
X101870500Y-58559953D01*
X101870500Y-56175761D01*
X101890185Y-56108722D01*
X101894165Y-56102899D01*
X101982287Y-55981610D01*
X102075220Y-55799219D01*
X102138477Y-55604534D01*
X102170500Y-55402352D01*
X102170500Y-55197648D01*
X102138477Y-54995466D01*
X102075220Y-54800781D01*
X102075218Y-54800778D01*
X102075218Y-54800776D01*
X102041503Y-54734607D01*
X101982287Y-54618390D01*
X101915225Y-54526086D01*
X101861971Y-54452786D01*
X101717213Y-54308028D01*
X101551613Y-54187715D01*
X101551612Y-54187714D01*
X101551610Y-54187713D01*
X101480344Y-54151401D01*
X101369223Y-54094781D01*
X101174534Y-54031522D01*
X100982908Y-54001172D01*
X100972352Y-53999500D01*
X100767648Y-53999500D01*
X100757092Y-54001172D01*
X100565465Y-54031522D01*
X100370776Y-54094781D01*
X100188386Y-54187715D01*
X100022786Y-54308028D01*
X99878028Y-54452786D01*
X99757715Y-54618386D01*
X99664781Y-54800776D01*
X99601522Y-54995465D01*
X99569500Y-55197648D01*
X99569500Y-55402352D01*
X99573878Y-55429995D01*
X99601522Y-55604534D01*
X99664781Y-55799223D01*
X99757713Y-55981610D01*
X99845819Y-56102877D01*
X99869298Y-56168681D01*
X99869500Y-56175761D01*
X99869500Y-58693056D01*
X99849815Y-58760095D01*
X99845819Y-58765940D01*
X99807713Y-58818389D01*
X99807712Y-58818391D01*
X99714781Y-59000776D01*
X99651522Y-59195465D01*
X99619500Y-59397648D01*
X99619500Y-59602351D01*
X99651522Y-59804534D01*
X99714781Y-59999223D01*
X99781776Y-60130706D01*
X99807713Y-60181610D01*
X99875819Y-60275349D01*
X99899298Y-60341153D01*
X99899500Y-60348233D01*
X99899500Y-62624237D01*
X99879815Y-62691276D01*
X99875818Y-62697122D01*
X99787715Y-62818386D01*
X99694781Y-63000776D01*
X99631522Y-63195465D01*
X99599500Y-63397648D01*
X99599500Y-63602351D01*
X99631522Y-63804534D01*
X99694781Y-63999223D01*
X99735008Y-64078171D01*
X99787713Y-64181610D01*
X99875819Y-64302877D01*
X99899298Y-64368681D01*
X99899500Y-64375761D01*
X99899500Y-73498544D01*
X99937947Y-73691829D01*
X99937949Y-73691835D01*
X99944713Y-73708164D01*
X99944714Y-73708168D01*
X100013364Y-73873907D01*
X100013371Y-73873920D01*
X100122860Y-74037781D01*
X100122863Y-74037785D01*
X100266537Y-74181459D01*
X100266559Y-74181479D01*
X100719735Y-74634655D01*
X100719764Y-74634686D01*
X100862214Y-74777136D01*
X100862218Y-74777139D01*
X101026079Y-74886628D01*
X101026092Y-74886635D01*
X101154833Y-74939961D01*
X101197744Y-74957735D01*
X101208164Y-74962051D01*
X101304812Y-74981275D01*
X101353135Y-74990887D01*
X101401458Y-75000500D01*
X101401459Y-75000500D01*
X101401460Y-75000500D01*
X101598540Y-75000500D01*
X101868030Y-75000500D01*
X101935069Y-75020185D01*
X101941969Y-75024956D01*
X101949274Y-75030382D01*
X101960437Y-75041545D01*
X102134322Y-75167880D01*
X102134528Y-75167985D01*
X102137855Y-75170456D01*
X102158502Y-75197824D01*
X102179467Y-75225012D01*
X102179525Y-75225689D01*
X102179935Y-75226233D01*
X102182512Y-75260469D01*
X102185446Y-75294626D01*
X102185128Y-75295226D01*
X102185180Y-75295905D01*
X102168858Y-75326062D01*
X102152840Y-75356421D01*
X102152064Y-75357092D01*
X102151924Y-75357353D01*
X102151485Y-75357594D01*
X102136802Y-75370318D01*
X102134322Y-75372120D01*
X101960437Y-75498455D01*
X101960435Y-75498457D01*
X101960434Y-75498457D01*
X101955711Y-75503181D01*
X101894388Y-75536666D01*
X101868030Y-75539500D01*
X101361455Y-75539500D01*
X101269374Y-75557816D01*
X101269366Y-75557818D01*
X101264812Y-75558724D01*
X101168164Y-75577949D01*
X101116136Y-75599500D01*
X101109185Y-75602378D01*
X101109178Y-75602381D01*
X100986082Y-75653369D01*
X100822219Y-75762859D01*
X100766693Y-75818386D01*
X100682861Y-75902218D01*
X100682858Y-75902221D01*
X99862221Y-76722858D01*
X99862218Y-76722861D01*
X99792538Y-76792540D01*
X99722859Y-76862219D01*
X99613371Y-77026080D01*
X99613366Y-77026089D01*
X99597593Y-77064170D01*
X99581131Y-77103914D01*
X99537949Y-77208164D01*
X99524229Y-77277139D01*
X99499500Y-77401459D01*
X98800500Y-77401459D01*
X98800500Y-50974500D01*
X98820185Y-50907461D01*
X98872989Y-50861706D01*
X98924500Y-50850500D01*
X111935217Y-50850500D01*
X112002256Y-50870185D01*
G37*
%TD.AperFunction*%
%TD*%
%TA.AperFunction,NonConductor*%
G36*
X113852257Y-52520185D02*
G01*
X113898012Y-52572989D01*
X113907956Y-52642147D01*
X113878931Y-52705703D01*
X113872900Y-52712179D01*
X112362221Y-54222858D01*
X112362218Y-54222861D01*
X112277051Y-54308028D01*
X112242181Y-54342898D01*
X112180858Y-54376382D01*
X112111166Y-54371398D01*
X112055233Y-54329526D01*
X112030816Y-54264062D01*
X112030500Y-54255216D01*
X112030500Y-53935782D01*
X112050185Y-53868743D01*
X112066819Y-53848101D01*
X113378102Y-52536819D01*
X113439425Y-52503334D01*
X113465783Y-52500500D01*
X113785218Y-52500500D01*
X113852257Y-52520185D01*
G37*
%TD.AperFunction*%
%TA.AperFunction,NonConductor*%
G36*
X128601257Y-52520185D02*
G01*
X128621899Y-52536819D01*
X131853181Y-55768101D01*
X131886666Y-55829424D01*
X131889500Y-55855782D01*
X131889500Y-55996538D01*
X131869815Y-56063577D01*
X131817011Y-56109332D01*
X131747853Y-56119276D01*
X131684297Y-56090251D01*
X131666234Y-56070850D01*
X131610603Y-55996538D01*
X131607546Y-55992454D01*
X131607544Y-55992453D01*
X131607544Y-55992452D01*
X131492335Y-55906206D01*
X131492328Y-55906202D01*
X131357482Y-55855908D01*
X131357483Y-55855908D01*
X131297883Y-55849501D01*
X131297881Y-55849500D01*
X131297873Y-55849500D01*
X131297864Y-55849500D01*
X129402129Y-55849500D01*
X129402123Y-55849501D01*
X129342516Y-55855908D01*
X129207671Y-55906202D01*
X129207664Y-55906206D01*
X129092455Y-55992452D01*
X129092452Y-55992455D01*
X129006206Y-56107664D01*
X129006202Y-56107671D01*
X128955908Y-56242517D01*
X128949501Y-56302116D01*
X128949500Y-56302135D01*
X128949500Y-58197870D01*
X128949501Y-58197876D01*
X128955908Y-58257483D01*
X129006202Y-58392328D01*
X129006206Y-58392335D01*
X129092452Y-58507544D01*
X129092455Y-58507547D01*
X129207664Y-58593793D01*
X129207669Y-58593796D01*
X129268833Y-58616608D01*
X129324766Y-58658478D01*
X129349184Y-58723942D01*
X129349500Y-58732790D01*
X129349500Y-62684217D01*
X129329815Y-62751256D01*
X129313181Y-62771898D01*
X128492220Y-63592859D01*
X128492218Y-63592861D01*
X128422538Y-63662540D01*
X128352859Y-63732219D01*
X128243368Y-63896085D01*
X128243365Y-63896090D01*
X128230507Y-63927136D01*
X128230506Y-63927139D01*
X128167949Y-64078163D01*
X128167947Y-64078171D01*
X128148724Y-64174812D01*
X128129500Y-64271455D01*
X128129500Y-67264237D01*
X128109815Y-67331276D01*
X128105818Y-67337122D01*
X128017715Y-67458386D01*
X127970485Y-67551080D01*
X127922510Y-67601876D01*
X127854689Y-67618671D01*
X127788554Y-67596134D01*
X127749515Y-67551080D01*
X127748883Y-67549840D01*
X127702287Y-67458390D01*
X127619984Y-67345108D01*
X127614182Y-67337122D01*
X127590702Y-67271316D01*
X127590500Y-67264237D01*
X127590500Y-63491456D01*
X127552052Y-63298170D01*
X127552051Y-63298169D01*
X127552051Y-63298165D01*
X127552049Y-63298160D01*
X127476635Y-63116092D01*
X127476628Y-63116079D01*
X127367140Y-62952219D01*
X127367139Y-62952218D01*
X127227782Y-62812861D01*
X127227781Y-62812860D01*
X125136819Y-60721898D01*
X125103334Y-60660575D01*
X125100500Y-60634217D01*
X125100500Y-58732790D01*
X125120185Y-58665751D01*
X125172989Y-58619996D01*
X125181146Y-58616616D01*
X125242331Y-58593796D01*
X125357546Y-58507546D01*
X125443796Y-58392331D01*
X125445518Y-58387715D01*
X125473601Y-58312420D01*
X125515471Y-58256486D01*
X125580936Y-58232068D01*
X125649209Y-58246919D01*
X125677464Y-58268071D01*
X125727636Y-58318243D01*
X125727641Y-58318247D01*
X125837270Y-58397896D01*
X125905978Y-58447815D01*
X126024163Y-58508034D01*
X126102393Y-58547895D01*
X126102396Y-58547896D01*
X126207221Y-58581955D01*
X126312049Y-58616015D01*
X126529778Y-58650500D01*
X126529779Y-58650500D01*
X126750221Y-58650500D01*
X126750222Y-58650500D01*
X126967951Y-58616015D01*
X127177606Y-58547895D01*
X127374022Y-58447815D01*
X127552365Y-58318242D01*
X127708242Y-58162365D01*
X127837815Y-57984022D01*
X127937895Y-57787606D01*
X128006015Y-57577951D01*
X128040500Y-57360222D01*
X128040500Y-57139778D01*
X128006015Y-56922049D01*
X127937895Y-56712394D01*
X127937895Y-56712393D01*
X127903237Y-56644375D01*
X127837815Y-56515978D01*
X127779501Y-56435715D01*
X127708247Y-56337641D01*
X127708243Y-56337636D01*
X127676820Y-56306213D01*
X127643335Y-56244890D01*
X127640501Y-56218532D01*
X127640501Y-56041457D01*
X127640500Y-56041455D01*
X127630753Y-55992452D01*
X127602052Y-55848165D01*
X127526632Y-55666086D01*
X127526631Y-55666085D01*
X127526628Y-55666079D01*
X127417140Y-55502219D01*
X127417137Y-55502215D01*
X124627101Y-52712181D01*
X124593616Y-52650858D01*
X124598600Y-52581166D01*
X124640472Y-52525233D01*
X124705936Y-52500816D01*
X124714782Y-52500500D01*
X128534218Y-52500500D01*
X128601257Y-52520185D01*
G37*
%TD.AperFunction*%
%TA.AperFunction,NonConductor*%
G36*
X123101257Y-54020185D02*
G01*
X123121899Y-54036819D01*
X124722898Y-55637819D01*
X124756383Y-55699142D01*
X124751399Y-55768834D01*
X124709527Y-55824767D01*
X124644063Y-55849184D01*
X124635217Y-55849500D01*
X123152129Y-55849500D01*
X123152123Y-55849501D01*
X123092516Y-55855908D01*
X122957671Y-55906202D01*
X122957664Y-55906206D01*
X122842455Y-55992452D01*
X122842452Y-55992455D01*
X122756206Y-56107664D01*
X122756202Y-56107671D01*
X122705908Y-56242517D01*
X122699501Y-56302116D01*
X122699500Y-56302135D01*
X122699500Y-58197870D01*
X122699501Y-58197876D01*
X122705908Y-58257483D01*
X122756202Y-58392328D01*
X122756206Y-58392335D01*
X122842452Y-58507544D01*
X122842455Y-58507547D01*
X122957664Y-58593793D01*
X122957669Y-58593796D01*
X123018833Y-58616608D01*
X123074766Y-58658478D01*
X123099184Y-58723942D01*
X123099500Y-58732790D01*
X123099500Y-61198544D01*
X123137947Y-61391833D01*
X123137949Y-61391837D01*
X123160038Y-61445164D01*
X123213366Y-61573911D01*
X123213371Y-61573920D01*
X123322859Y-61737780D01*
X123322860Y-61737781D01*
X123322861Y-61737782D01*
X123462218Y-61877139D01*
X123462219Y-61877139D01*
X123469286Y-61884206D01*
X123469285Y-61884206D01*
X123469289Y-61884209D01*
X125553181Y-63968101D01*
X125586666Y-64029424D01*
X125589500Y-64055782D01*
X125589500Y-67264237D01*
X125569815Y-67331276D01*
X125565818Y-67337122D01*
X125477715Y-67458386D01*
X125430485Y-67551080D01*
X125382510Y-67601876D01*
X125314689Y-67618671D01*
X125248554Y-67596134D01*
X125209515Y-67551080D01*
X125208883Y-67549840D01*
X125162287Y-67458390D01*
X125079984Y-67345108D01*
X125074182Y-67337122D01*
X125050702Y-67271316D01*
X125050500Y-67264237D01*
X125050500Y-65451456D01*
X125012052Y-65258170D01*
X125012051Y-65258169D01*
X125012051Y-65258165D01*
X125012049Y-65258160D01*
X124936635Y-65076092D01*
X124936628Y-65076079D01*
X124827139Y-64912218D01*
X124827136Y-64912214D01*
X124684686Y-64769764D01*
X124684655Y-64769735D01*
X118596819Y-58681899D01*
X118582115Y-58654971D01*
X118565523Y-58629153D01*
X118564631Y-58622952D01*
X118563334Y-58620576D01*
X118560500Y-58594218D01*
X118560500Y-58582790D01*
X118580185Y-58515751D01*
X118632989Y-58469996D01*
X118641146Y-58466616D01*
X118702331Y-58443796D01*
X118817546Y-58357546D01*
X118903796Y-58242331D01*
X118907827Y-58231523D01*
X118933601Y-58162420D01*
X118975471Y-58106486D01*
X119040936Y-58082068D01*
X119109209Y-58096919D01*
X119137464Y-58118071D01*
X119187636Y-58168243D01*
X119187641Y-58168247D01*
X119309093Y-58256486D01*
X119365978Y-58297815D01*
X119494375Y-58363237D01*
X119562393Y-58397895D01*
X119562396Y-58397896D01*
X119622745Y-58417504D01*
X119772049Y-58466015D01*
X119989778Y-58500500D01*
X119989779Y-58500500D01*
X120210221Y-58500500D01*
X120210222Y-58500500D01*
X120427951Y-58466015D01*
X120637606Y-58397895D01*
X120834022Y-58297815D01*
X121012365Y-58168242D01*
X121168242Y-58012365D01*
X121297815Y-57834022D01*
X121397895Y-57637606D01*
X121466015Y-57427951D01*
X121500500Y-57210222D01*
X121500500Y-56989778D01*
X121466015Y-56772049D01*
X121410276Y-56600500D01*
X121397896Y-56562396D01*
X121397895Y-56562393D01*
X121363237Y-56494375D01*
X121297815Y-56365978D01*
X121266364Y-56322689D01*
X121168247Y-56187641D01*
X121168243Y-56187636D01*
X121136819Y-56156212D01*
X121103334Y-56094889D01*
X121100500Y-56068531D01*
X121100500Y-56001456D01*
X121100499Y-56001454D01*
X121062053Y-55808174D01*
X121062052Y-55808172D01*
X121062051Y-55808165D01*
X121058345Y-55799219D01*
X121049199Y-55777139D01*
X121020630Y-55708165D01*
X120986635Y-55626091D01*
X120986628Y-55626079D01*
X120877139Y-55462218D01*
X120877136Y-55462214D01*
X120734686Y-55319764D01*
X120734655Y-55319735D01*
X119781648Y-54366728D01*
X119777141Y-54362221D01*
X119777139Y-54362218D01*
X119637782Y-54222861D01*
X119633803Y-54220202D01*
X119626105Y-54212573D01*
X119611921Y-54186872D01*
X119595392Y-54162605D01*
X119595232Y-54156632D01*
X119592345Y-54151401D01*
X119594308Y-54122106D01*
X119593523Y-54092761D01*
X119596617Y-54087650D01*
X119597017Y-54081688D01*
X119614505Y-54058105D01*
X119629711Y-54032993D01*
X119635077Y-54030366D01*
X119638637Y-54025567D01*
X119666097Y-54015184D01*
X119692468Y-54002278D01*
X119702484Y-54001426D01*
X119703992Y-54000857D01*
X119705475Y-54001172D01*
X119713392Y-54000500D01*
X123034218Y-54000500D01*
X123101257Y-54020185D01*
G37*
%TD.AperFunction*%
%TA.AperFunction,NonConductor*%
G36*
X133855909Y-75045033D02*
G01*
X133871993Y-75044574D01*
X133888743Y-75054674D01*
X133907509Y-75060185D01*
X133918044Y-75072343D01*
X133931826Y-75080654D01*
X133940457Y-75098209D01*
X133953264Y-75112989D01*
X133955553Y-75128913D01*
X133962654Y-75143355D01*
X133960424Y-75162786D01*
X133963208Y-75182147D01*
X133956523Y-75196784D01*
X133954689Y-75212769D01*
X133942309Y-75227908D01*
X133934183Y-75245703D01*
X133920152Y-75255005D01*
X133910461Y-75266858D01*
X133878789Y-75282430D01*
X133841255Y-75294626D01*
X133840778Y-75294781D01*
X133658386Y-75387715D01*
X133537123Y-75475818D01*
X133471317Y-75499298D01*
X133464238Y-75499500D01*
X107401455Y-75499500D01*
X107304812Y-75518724D01*
X107208167Y-75537947D01*
X107208161Y-75537949D01*
X107154834Y-75560037D01*
X107154834Y-75560038D01*
X107111594Y-75577949D01*
X107026089Y-75613366D01*
X107026079Y-75613371D01*
X106862219Y-75722859D01*
X106822220Y-75762859D01*
X106722861Y-75862218D01*
X106722858Y-75862221D01*
X104541899Y-78043181D01*
X104480576Y-78076666D01*
X104454218Y-78079500D01*
X104131970Y-78079500D01*
X104064931Y-78059815D01*
X104058031Y-78055044D01*
X104050726Y-78049618D01*
X104039563Y-78038455D01*
X103865678Y-77912120D01*
X103865468Y-77912013D01*
X103862144Y-77909544D01*
X103841474Y-77882146D01*
X103820532Y-77854988D01*
X103820473Y-77854310D01*
X103820064Y-77853767D01*
X103817486Y-77819534D01*
X103814553Y-77785375D01*
X103814870Y-77784774D01*
X103814819Y-77784095D01*
X103831161Y-77753898D01*
X103847159Y-77723580D01*
X103847933Y-77722909D01*
X103848075Y-77722647D01*
X103848516Y-77722403D01*
X103863198Y-77709682D01*
X103944162Y-77650858D01*
X104039563Y-77581545D01*
X104191545Y-77429563D01*
X104317880Y-77255678D01*
X104415458Y-77064170D01*
X104427834Y-77026080D01*
X104481875Y-76859759D01*
X104481875Y-76859758D01*
X104481876Y-76859755D01*
X104515500Y-76647467D01*
X104515500Y-76432533D01*
X104481876Y-76220245D01*
X104481875Y-76220241D01*
X104481875Y-76220240D01*
X104415459Y-76015832D01*
X104415458Y-76015829D01*
X104317879Y-75824321D01*
X104313567Y-75818386D01*
X104191545Y-75650437D01*
X104039563Y-75498455D01*
X103865678Y-75372120D01*
X103863198Y-75370318D01*
X103820532Y-75314988D01*
X103814553Y-75245375D01*
X103847159Y-75183580D01*
X103863198Y-75169682D01*
X104008406Y-75064182D01*
X104074212Y-75040702D01*
X104081291Y-75040500D01*
X133840470Y-75040500D01*
X133855909Y-75045033D01*
G37*
%TD.AperFunction*%
%TA.AperFunction,NonConductor*%
G36*
X101942970Y-77574462D02*
G01*
X101972522Y-77590326D01*
X102136801Y-77709682D01*
X102179467Y-77765012D01*
X102185446Y-77834625D01*
X102152840Y-77896420D01*
X102136802Y-77910318D01*
X102134322Y-77912120D01*
X101960437Y-78038455D01*
X101960435Y-78038457D01*
X101960434Y-78038457D01*
X101808456Y-78190435D01*
X101724818Y-78305553D01*
X101669488Y-78348218D01*
X101599874Y-78354197D01*
X101538079Y-78321591D01*
X101503722Y-78260752D01*
X101500500Y-78232667D01*
X101500500Y-77965782D01*
X101520185Y-77898743D01*
X101536819Y-77878101D01*
X101661022Y-77753898D01*
X101811958Y-77602961D01*
X101873279Y-77569478D01*
X101942970Y-77574462D01*
G37*
%TD.AperFunction*%
%TA.AperFunction,NonConductor*%
G36*
X137141256Y-75060185D02*
G01*
X137161898Y-75076819D01*
X137369284Y-75284205D01*
X137369290Y-75284210D01*
X143333181Y-81248101D01*
X143366666Y-81309424D01*
X143369500Y-81335782D01*
X143369500Y-82504237D01*
X143349815Y-82571276D01*
X143345818Y-82577122D01*
X143257715Y-82698386D01*
X143210485Y-82791080D01*
X143162510Y-82841876D01*
X143094689Y-82858671D01*
X143028554Y-82836134D01*
X142989515Y-82791080D01*
X142988883Y-82789840D01*
X142942287Y-82698390D01*
X142934556Y-82687749D01*
X142821971Y-82532786D01*
X142677213Y-82388028D01*
X142511613Y-82267715D01*
X142511612Y-82267714D01*
X142511610Y-82267713D01*
X142447378Y-82234985D01*
X142329223Y-82174781D01*
X142134534Y-82111522D01*
X141959995Y-82083878D01*
X141932352Y-82079500D01*
X141727648Y-82079500D01*
X141713840Y-82081687D01*
X141525465Y-82111522D01*
X141330776Y-82174781D01*
X141148386Y-82267715D01*
X140982786Y-82388028D01*
X140838028Y-82532786D01*
X140717715Y-82698386D01*
X140670485Y-82791080D01*
X140622510Y-82841876D01*
X140554689Y-82858671D01*
X140488554Y-82836134D01*
X140449515Y-82791080D01*
X140448883Y-82789840D01*
X140402287Y-82698390D01*
X140394556Y-82687749D01*
X140281971Y-82532786D01*
X140137213Y-82388028D01*
X139971613Y-82267715D01*
X139971612Y-82267714D01*
X139971610Y-82267713D01*
X139907378Y-82234985D01*
X139789223Y-82174781D01*
X139594534Y-82111522D01*
X139419995Y-82083878D01*
X139392352Y-82079500D01*
X139187648Y-82079500D01*
X139173840Y-82081687D01*
X138985465Y-82111522D01*
X138790776Y-82174781D01*
X138608386Y-82267715D01*
X138442786Y-82388028D01*
X138298028Y-82532786D01*
X138177715Y-82698386D01*
X138130485Y-82791080D01*
X138082510Y-82841876D01*
X138014689Y-82858671D01*
X137948554Y-82836134D01*
X137909515Y-82791080D01*
X137908883Y-82789840D01*
X137862287Y-82698390D01*
X137854556Y-82687749D01*
X137741971Y-82532786D01*
X137597213Y-82388028D01*
X137431613Y-82267715D01*
X137431612Y-82267714D01*
X137431610Y-82267713D01*
X137367378Y-82234985D01*
X137249223Y-82174781D01*
X137054534Y-82111522D01*
X136879995Y-82083878D01*
X136852352Y-82079500D01*
X136647648Y-82079500D01*
X136633840Y-82081687D01*
X136445465Y-82111522D01*
X136250776Y-82174781D01*
X136068386Y-82267715D01*
X135902786Y-82388028D01*
X135758028Y-82532786D01*
X135637715Y-82698386D01*
X135590485Y-82791080D01*
X135542510Y-82841876D01*
X135474689Y-82858671D01*
X135408554Y-82836134D01*
X135369515Y-82791080D01*
X135368883Y-82789840D01*
X135322287Y-82698390D01*
X135314556Y-82687749D01*
X135201971Y-82532786D01*
X135057213Y-82388028D01*
X134891613Y-82267715D01*
X134891612Y-82267714D01*
X134891610Y-82267713D01*
X134827378Y-82234985D01*
X134709223Y-82174781D01*
X134514534Y-82111522D01*
X134339995Y-82083878D01*
X134312352Y-82079500D01*
X134107648Y-82079500D01*
X134093840Y-82081687D01*
X133905465Y-82111522D01*
X133710776Y-82174781D01*
X133528386Y-82267715D01*
X133362786Y-82388028D01*
X133218028Y-82532786D01*
X133097715Y-82698386D01*
X133050485Y-82791080D01*
X133002510Y-82841876D01*
X132934689Y-82858671D01*
X132868554Y-82836134D01*
X132829515Y-82791080D01*
X132828883Y-82789840D01*
X132782287Y-82698390D01*
X132774556Y-82687749D01*
X132661971Y-82532786D01*
X132517213Y-82388028D01*
X132351613Y-82267715D01*
X132351612Y-82267714D01*
X132351610Y-82267713D01*
X132287378Y-82234985D01*
X132169223Y-82174781D01*
X131974534Y-82111522D01*
X131799995Y-82083878D01*
X131772352Y-82079500D01*
X131567648Y-82079500D01*
X131553840Y-82081687D01*
X131365465Y-82111522D01*
X131170776Y-82174781D01*
X130988386Y-82267715D01*
X130822786Y-82388028D01*
X130678028Y-82532786D01*
X130557715Y-82698386D01*
X130510485Y-82791080D01*
X130462510Y-82841876D01*
X130394689Y-82858671D01*
X130328554Y-82836134D01*
X130289515Y-82791080D01*
X130288883Y-82789840D01*
X130242287Y-82698390D01*
X130229654Y-82681003D01*
X130154182Y-82577122D01*
X130130702Y-82511316D01*
X130130500Y-82504237D01*
X130130500Y-80531456D01*
X130098620Y-80371189D01*
X130096836Y-80362219D01*
X130092051Y-80338164D01*
X130054654Y-80247880D01*
X130035631Y-80201955D01*
X130016635Y-80156092D01*
X130016628Y-80156079D01*
X129907139Y-79992218D01*
X129907136Y-79992214D01*
X129764686Y-79849764D01*
X129764655Y-79849735D01*
X127627101Y-77712181D01*
X127593616Y-77650858D01*
X127598600Y-77581166D01*
X127640472Y-77525233D01*
X127705936Y-77500816D01*
X127714782Y-77500500D01*
X133464238Y-77500500D01*
X133531277Y-77520185D01*
X133537119Y-77524179D01*
X133658390Y-77612287D01*
X133734090Y-77650858D01*
X133840776Y-77705218D01*
X133840778Y-77705218D01*
X133840781Y-77705220D01*
X133945137Y-77739127D01*
X134035465Y-77768477D01*
X134134073Y-77784095D01*
X134237648Y-77800500D01*
X134237649Y-77800500D01*
X134442351Y-77800500D01*
X134442352Y-77800500D01*
X134644534Y-77768477D01*
X134839219Y-77705220D01*
X135021610Y-77612287D01*
X135148569Y-77520047D01*
X135187213Y-77491971D01*
X135187215Y-77491968D01*
X135187219Y-77491966D01*
X135331966Y-77347219D01*
X135331968Y-77347215D01*
X135331971Y-77347213D01*
X135398474Y-77255678D01*
X135452287Y-77181610D01*
X135545220Y-76999219D01*
X135608477Y-76804534D01*
X135640500Y-76602352D01*
X135640500Y-76397648D01*
X135608477Y-76195466D01*
X135545220Y-76000781D01*
X135545218Y-76000778D01*
X135545218Y-76000776D01*
X135495001Y-75902221D01*
X135452287Y-75818390D01*
X135444556Y-75807749D01*
X135331971Y-75652786D01*
X135187213Y-75508028D01*
X135021613Y-75387715D01*
X135021612Y-75387714D01*
X135021610Y-75387713D01*
X134839219Y-75294780D01*
X134801211Y-75282430D01*
X134743536Y-75242993D01*
X134716338Y-75178635D01*
X134728253Y-75109788D01*
X134775497Y-75058313D01*
X134839530Y-75040500D01*
X137074217Y-75040500D01*
X137141256Y-75060185D01*
G37*
%TD.AperFunction*%
%TA.AperFunction,NonConductor*%
G36*
X124601257Y-77520185D02*
G01*
X124621899Y-77536819D01*
X128093181Y-81008101D01*
X128126666Y-81069424D01*
X128129500Y-81095782D01*
X128129500Y-82504237D01*
X128109815Y-82571276D01*
X128105818Y-82577122D01*
X128017715Y-82698386D01*
X127970485Y-82791080D01*
X127922510Y-82841876D01*
X127854689Y-82858671D01*
X127788554Y-82836134D01*
X127749515Y-82791080D01*
X127748336Y-82788767D01*
X127702287Y-82698390D01*
X127684377Y-82673739D01*
X127614182Y-82577121D01*
X127590703Y-82511314D01*
X127590501Y-82504237D01*
X127590501Y-82491457D01*
X127590500Y-82491455D01*
X127569927Y-82388028D01*
X127552052Y-82298165D01*
X127476632Y-82116086D01*
X127476631Y-82116085D01*
X127476628Y-82116079D01*
X127367140Y-81952219D01*
X127367137Y-81952215D01*
X126311662Y-80896741D01*
X126278177Y-80835418D01*
X126276870Y-80828457D01*
X126268477Y-80775466D01*
X126268477Y-80775465D01*
X126205218Y-80580776D01*
X126171503Y-80514607D01*
X126112287Y-80398390D01*
X126104556Y-80387749D01*
X125991971Y-80232786D01*
X125847213Y-80088028D01*
X125681613Y-79967715D01*
X125681612Y-79967714D01*
X125681610Y-79967713D01*
X125601728Y-79927011D01*
X125499223Y-79874781D01*
X125304534Y-79811522D01*
X125129995Y-79783878D01*
X125102352Y-79779500D01*
X124897648Y-79779500D01*
X124873329Y-79783351D01*
X124695465Y-79811522D01*
X124500776Y-79874781D01*
X124318388Y-79967713D01*
X124307236Y-79975817D01*
X124241430Y-79999298D01*
X124234349Y-79999500D01*
X105714784Y-79999500D01*
X105693540Y-79993262D01*
X105671453Y-79991683D01*
X105660667Y-79983609D01*
X105647745Y-79979815D01*
X105633247Y-79963083D01*
X105615519Y-79949813D01*
X105610810Y-79937190D01*
X105601990Y-79927011D01*
X105598838Y-79905095D01*
X105591100Y-79884349D01*
X105593963Y-79871185D01*
X105592046Y-79857853D01*
X105601243Y-79837712D01*
X105605950Y-79816076D01*
X105619221Y-79798346D01*
X105621071Y-79794297D01*
X105627100Y-79787821D01*
X105635421Y-79779500D01*
X105697139Y-79717782D01*
X105697141Y-79717778D01*
X107878101Y-77536819D01*
X107939424Y-77503334D01*
X107965782Y-77500500D01*
X122901459Y-77500500D01*
X124534218Y-77500500D01*
X124601257Y-77520185D01*
G37*
%TD.AperFunction*%
%TA.AperFunction,NonConductor*%
G36*
X123443366Y-82020185D02*
G01*
X123489121Y-82072989D01*
X123499065Y-82142147D01*
X123470040Y-82205703D01*
X123432622Y-82234985D01*
X123368386Y-82267715D01*
X123202786Y-82388028D01*
X123058028Y-82532786D01*
X122937715Y-82698386D01*
X122890485Y-82791080D01*
X122842510Y-82841876D01*
X122774689Y-82858671D01*
X122708554Y-82836134D01*
X122669515Y-82791080D01*
X122668883Y-82789840D01*
X122622287Y-82698390D01*
X122614556Y-82687749D01*
X122501971Y-82532786D01*
X122357213Y-82388028D01*
X122191613Y-82267715D01*
X122191612Y-82267714D01*
X122191610Y-82267713D01*
X122127378Y-82234985D01*
X122076582Y-82187010D01*
X122059787Y-82119189D01*
X122082325Y-82053054D01*
X122137040Y-82009603D01*
X122183673Y-82000500D01*
X123376327Y-82000500D01*
X123443366Y-82020185D01*
G37*
%TD.AperFunction*%
%TA.AperFunction,NonConductor*%
G36*
X120842439Y-82002294D02*
G01*
X120848701Y-82001119D01*
X120875559Y-82012020D01*
X120903366Y-82020185D01*
X120907537Y-82024998D01*
X120913441Y-82027395D01*
X120930144Y-82051089D01*
X120949121Y-82072989D01*
X120950027Y-82079292D01*
X120953699Y-82084501D01*
X120954940Y-82113460D01*
X120959065Y-82142147D01*
X120956418Y-82147942D01*
X120956691Y-82154307D01*
X120942081Y-82179336D01*
X120930040Y-82205703D01*
X120923874Y-82210527D01*
X120921469Y-82214649D01*
X120892622Y-82234985D01*
X120828386Y-82267715D01*
X120662786Y-82388028D01*
X120518028Y-82532786D01*
X120397715Y-82698386D01*
X120350485Y-82791080D01*
X120302510Y-82841876D01*
X120234689Y-82858671D01*
X120168554Y-82836134D01*
X120129515Y-82791080D01*
X120128883Y-82789840D01*
X120082287Y-82698390D01*
X120074556Y-82687749D01*
X119961971Y-82532786D01*
X119817213Y-82388028D01*
X119651613Y-82267715D01*
X119651612Y-82267714D01*
X119651610Y-82267713D01*
X119587378Y-82234985D01*
X119536582Y-82187010D01*
X119519787Y-82119189D01*
X119542325Y-82053054D01*
X119597040Y-82009603D01*
X119643673Y-82000500D01*
X120836327Y-82000500D01*
X120842439Y-82002294D01*
G37*
%TD.AperFunction*%
%TA.AperFunction,NonConductor*%
G36*
X118363366Y-82020185D02*
G01*
X118409121Y-82072989D01*
X118419065Y-82142147D01*
X118390040Y-82205703D01*
X118352622Y-82234985D01*
X118288386Y-82267715D01*
X118122786Y-82388028D01*
X117978028Y-82532786D01*
X117857715Y-82698386D01*
X117810485Y-82791080D01*
X117762510Y-82841876D01*
X117694689Y-82858671D01*
X117628554Y-82836134D01*
X117589515Y-82791080D01*
X117588883Y-82789840D01*
X117542287Y-82698390D01*
X117534556Y-82687749D01*
X117421971Y-82532786D01*
X117277213Y-82388028D01*
X117111613Y-82267715D01*
X117111612Y-82267714D01*
X117111610Y-82267713D01*
X117047378Y-82234985D01*
X116996582Y-82187010D01*
X116979787Y-82119189D01*
X117002325Y-82053054D01*
X117057040Y-82009603D01*
X117103673Y-82000500D01*
X118296327Y-82000500D01*
X118363366Y-82020185D01*
G37*
%TD.AperFunction*%
%TA.AperFunction,NonConductor*%
G36*
X135551445Y-83923865D02*
G01*
X135590483Y-83968917D01*
X135637713Y-84061610D01*
X135725819Y-84182877D01*
X135749298Y-84248681D01*
X135749500Y-84255761D01*
X135749500Y-85634217D01*
X135729815Y-85701256D01*
X135713181Y-85721898D01*
X134721899Y-86713181D01*
X134660576Y-86746666D01*
X134634218Y-86749500D01*
X122450200Y-86749500D01*
X122383161Y-86729815D01*
X122370634Y-86720506D01*
X122197820Y-86594951D01*
X122008414Y-86498444D01*
X122008413Y-86498443D01*
X122008412Y-86498443D01*
X121806243Y-86432754D01*
X121806241Y-86432753D01*
X121806240Y-86432753D01*
X121644957Y-86407208D01*
X121596287Y-86399500D01*
X121383713Y-86399500D01*
X121335042Y-86407208D01*
X121173760Y-86432753D01*
X120971585Y-86498444D01*
X120782179Y-86594951D01*
X120610213Y-86719890D01*
X120459890Y-86870213D01*
X120334949Y-87042182D01*
X120330484Y-87050946D01*
X120282509Y-87101742D01*
X120214688Y-87118536D01*
X120148553Y-87095998D01*
X120118666Y-87066116D01*
X120113545Y-87058855D01*
X120105051Y-87042184D01*
X119993705Y-86888929D01*
X119993166Y-86888164D01*
X119982173Y-86855927D01*
X119970702Y-86823776D01*
X119970655Y-86822152D01*
X119970615Y-86822033D01*
X119970648Y-86821898D01*
X119970500Y-86816698D01*
X119970500Y-84255761D01*
X119990185Y-84188722D01*
X119994165Y-84182899D01*
X120082287Y-84061610D01*
X120129516Y-83968917D01*
X120177489Y-83918123D01*
X120245310Y-83901328D01*
X120311445Y-83923865D01*
X120350485Y-83968919D01*
X120397715Y-84061614D01*
X120518028Y-84227213D01*
X120662786Y-84371971D01*
X120817749Y-84484556D01*
X120828390Y-84492287D01*
X120944607Y-84551503D01*
X121010776Y-84585218D01*
X121010778Y-84585218D01*
X121010781Y-84585220D01*
X121115137Y-84619127D01*
X121205465Y-84648477D01*
X121306557Y-84664488D01*
X121407648Y-84680500D01*
X121407649Y-84680500D01*
X121612351Y-84680500D01*
X121612352Y-84680500D01*
X121814534Y-84648477D01*
X122009219Y-84585220D01*
X122191610Y-84492287D01*
X122284590Y-84424732D01*
X122357213Y-84371971D01*
X122357215Y-84371968D01*
X122357219Y-84371966D01*
X122501966Y-84227219D01*
X122501968Y-84227215D01*
X122501971Y-84227213D01*
X122622284Y-84061614D01*
X122622285Y-84061613D01*
X122622287Y-84061610D01*
X122669516Y-83968917D01*
X122717489Y-83918123D01*
X122785310Y-83901328D01*
X122851445Y-83923865D01*
X122890485Y-83968919D01*
X122937715Y-84061614D01*
X123058028Y-84227213D01*
X123202786Y-84371971D01*
X123357749Y-84484556D01*
X123368390Y-84492287D01*
X123484607Y-84551503D01*
X123550776Y-84585218D01*
X123550778Y-84585218D01*
X123550781Y-84585220D01*
X123655137Y-84619127D01*
X123745465Y-84648477D01*
X123846557Y-84664488D01*
X123947648Y-84680500D01*
X123947649Y-84680500D01*
X124152351Y-84680500D01*
X124152352Y-84680500D01*
X124354534Y-84648477D01*
X124549219Y-84585220D01*
X124731610Y-84492287D01*
X124824590Y-84424732D01*
X124897213Y-84371971D01*
X124897215Y-84371968D01*
X124897219Y-84371966D01*
X125041966Y-84227219D01*
X125041968Y-84227215D01*
X125041971Y-84227213D01*
X125162284Y-84061614D01*
X125162285Y-84061613D01*
X125162287Y-84061610D01*
X125209516Y-83968917D01*
X125257489Y-83918123D01*
X125325310Y-83901328D01*
X125391445Y-83923865D01*
X125430485Y-83968919D01*
X125477715Y-84061614D01*
X125598028Y-84227213D01*
X125742786Y-84371971D01*
X125897749Y-84484556D01*
X125908390Y-84492287D01*
X126024607Y-84551503D01*
X126090776Y-84585218D01*
X126090778Y-84585218D01*
X126090781Y-84585220D01*
X126195137Y-84619127D01*
X126285465Y-84648477D01*
X126386557Y-84664488D01*
X126487648Y-84680500D01*
X126487649Y-84680500D01*
X126692351Y-84680500D01*
X126692352Y-84680500D01*
X126894534Y-84648477D01*
X127089219Y-84585220D01*
X127271610Y-84492287D01*
X127364590Y-84424732D01*
X127437213Y-84371971D01*
X127437215Y-84371968D01*
X127437219Y-84371966D01*
X127581966Y-84227219D01*
X127581968Y-84227215D01*
X127581971Y-84227213D01*
X127702284Y-84061614D01*
X127702285Y-84061613D01*
X127702287Y-84061610D01*
X127749516Y-83968917D01*
X127797489Y-83918123D01*
X127865310Y-83901328D01*
X127931445Y-83923865D01*
X127970485Y-83968919D01*
X128017715Y-84061614D01*
X128138028Y-84227213D01*
X128282786Y-84371971D01*
X128437749Y-84484556D01*
X128448390Y-84492287D01*
X128564607Y-84551503D01*
X128630776Y-84585218D01*
X128630778Y-84585218D01*
X128630781Y-84585220D01*
X128735137Y-84619127D01*
X128825465Y-84648477D01*
X128926557Y-84664488D01*
X129027648Y-84680500D01*
X129027649Y-84680500D01*
X129232351Y-84680500D01*
X129232352Y-84680500D01*
X129434534Y-84648477D01*
X129629219Y-84585220D01*
X129811610Y-84492287D01*
X129904590Y-84424732D01*
X129977213Y-84371971D01*
X129977215Y-84371968D01*
X129977219Y-84371966D01*
X130121966Y-84227219D01*
X130121968Y-84227215D01*
X130121971Y-84227213D01*
X130242284Y-84061614D01*
X130242285Y-84061613D01*
X130242287Y-84061610D01*
X130289516Y-83968917D01*
X130337489Y-83918123D01*
X130405310Y-83901328D01*
X130471445Y-83923865D01*
X130510485Y-83968919D01*
X130557715Y-84061614D01*
X130678028Y-84227213D01*
X130822786Y-84371971D01*
X130977749Y-84484556D01*
X130988390Y-84492287D01*
X131104607Y-84551503D01*
X131170776Y-84585218D01*
X131170778Y-84585218D01*
X131170781Y-84585220D01*
X131275137Y-84619127D01*
X131365465Y-84648477D01*
X131466557Y-84664488D01*
X131567648Y-84680500D01*
X131567649Y-84680500D01*
X131772351Y-84680500D01*
X131772352Y-84680500D01*
X131974534Y-84648477D01*
X132169219Y-84585220D01*
X132351610Y-84492287D01*
X132444590Y-84424732D01*
X132517213Y-84371971D01*
X132517215Y-84371968D01*
X132517219Y-84371966D01*
X132661966Y-84227219D01*
X132661968Y-84227215D01*
X132661971Y-84227213D01*
X132782284Y-84061614D01*
X132782285Y-84061613D01*
X132782287Y-84061610D01*
X132829516Y-83968917D01*
X132877489Y-83918123D01*
X132945310Y-83901328D01*
X133011445Y-83923865D01*
X133050485Y-83968919D01*
X133097715Y-84061614D01*
X133218028Y-84227213D01*
X133362786Y-84371971D01*
X133517749Y-84484556D01*
X133528390Y-84492287D01*
X133644607Y-84551503D01*
X133710776Y-84585218D01*
X133710778Y-84585218D01*
X133710781Y-84585220D01*
X133815137Y-84619127D01*
X133905465Y-84648477D01*
X134006557Y-84664488D01*
X134107648Y-84680500D01*
X134107649Y-84680500D01*
X134312351Y-84680500D01*
X134312352Y-84680500D01*
X134514534Y-84648477D01*
X134709219Y-84585220D01*
X134891610Y-84492287D01*
X134984590Y-84424732D01*
X135057213Y-84371971D01*
X135057215Y-84371968D01*
X135057219Y-84371966D01*
X135201966Y-84227219D01*
X135201968Y-84227215D01*
X135201971Y-84227213D01*
X135322284Y-84061614D01*
X135322285Y-84061613D01*
X135322287Y-84061610D01*
X135369516Y-83968917D01*
X135417489Y-83918123D01*
X135485310Y-83901328D01*
X135551445Y-83923865D01*
G37*
%TD.AperFunction*%
M02*
