M48
; DRILL file {KiCad 9.0.7} date 2026-08-30T00:58:44+0200
; FORMAT={-:-/ absolute / metric / decimal}
; #@! TF.CreationDate,2026-08-30T00:58:44+02:00
; #@! TF.GenerationSoftware,Kicad,Pcbnew,9.0.7
; #@! TF.FileFunction,Plated,1,2,PTH
FMAT,2
METRIC
; #@! TA.AperFunction,Plated,PTH,ComponentDrill
T1C0.800
; #@! TA.AperFunction,Plated,PTH,ComponentDrill
T2C0.900
; #@! TA.AperFunction,Plated,PTH,ComponentDrill
T3C1.000
; #@! TA.AperFunction,Plated,PTH,ComponentDrill
T4C1.020
; #@! TA.AperFunction,Plated,PTH,ViaDrill
T5C2.000
%
G90
G05
T1
X100.87Y-55.3
X100.9Y-63.5
X100.92Y-59.5
X111.03Y-55.3
X111.06Y-63.5
X111.08Y-59.5
X125.0Y-70.92
X125.0Y-81.08
X134.34Y-76.5
X144.5Y-76.5
T2
X117.56Y-57.1
X120.1Y-57.1
X124.1Y-57.25
X126.64Y-57.25
X130.35Y-57.25
X132.89Y-57.25
T3
X111.35Y-68.14
X111.35Y-83.38
X113.89Y-68.14
X113.89Y-83.38
X116.41Y-87.75
X116.43Y-68.14
X116.43Y-83.38
X118.95Y-87.75
X118.97Y-68.14
X118.97Y-83.38
X121.49Y-87.75
X121.51Y-68.14
X121.51Y-83.38
X124.05Y-68.14
X124.05Y-83.38
X126.59Y-68.14
X126.59Y-83.38
X129.13Y-68.14
X129.13Y-83.38
X131.67Y-68.14
X131.67Y-83.38
X134.21Y-68.14
X134.21Y-83.38
X136.75Y-68.14
X136.75Y-83.38
X139.29Y-68.14
X139.29Y-83.38
X141.83Y-68.14
X141.83Y-83.38
X144.37Y-68.14
X144.37Y-83.38
X146.91Y-68.14
X146.91Y-83.38
T4
X103.0Y-71.46
X103.0Y-74.0
X103.0Y-76.54
X103.0Y-79.08
T5
X102.0Y-53.0
X102.0Y-87.0
X150.0Y-53.0
X150.0Y-87.0
M30
